<svg width="650" height="801" viewBox="0 0 650 801" fill="none" xmlns="http://www.w3.org/2000/svg">
<path fill-rule="evenodd" clip-rule="evenodd" d="M378.71 510.971C396.074 518.207 414.321 523.125 432.499 523.599C413.548 520.338 397.443 515.252 382.05 508.409C378.486 506.824 375.962 503.547 375.308 499.702C374.775 496.557 374.163 493.769 373.472 491.431L368.544 477.501L371.439 491.936C371.92 494.433 372.324 497.759 372.658 501.7C372.746 502.736 371.663 503.49 370.736 503.017C359.977 497.552 349.313 491.212 337.983 484C314.257 468.893 271.16 463.46 243.125 462.551C243.323 462.587 243.53 462.622 243.729 462.66C299.755 488.1 332.64 540.806 346.628 599.364C349.851 612.846 350.999 623.683 352.434 637.326C354.011 567.546 314.019 484.619 243.863 462.684C273.139 468.06 310.035 471.357 335.145 487.615C345.089 494.053 355.803 500.271 366.996 505.686C370.836 507.543 373.305 511.381 373.47 515.643C374.801 550.047 373.07 605.06 369.787 622.855C377.215 602.395 380.039 546.842 376.891 512.29C376.803 511.295 377.789 510.586 378.71 510.971Z" fill="#07051B"/>
<path fill-rule="evenodd" clip-rule="evenodd" d="M458.225 503.56C443.108 501.126 430.887 499.041 416.863 491.374C386.602 474.826 395.955 473.165 358.658 461.665C332.63 453.639 338.453 453.808 319.539 445.939C347.151 466.122 360.695 461.991 386.638 477.296C422.088 498.207 420.57 501.429 460.034 504.738L461.986 504.912C459.851 503.843 460.201 503.879 458.225 503.56Z" fill="#07051B"/>
<path fill-rule="evenodd" clip-rule="evenodd" d="M330.753 648.187C331.472 604.591 319.193 575.708 290.885 543.118C317.401 587.083 321.93 597.369 330.753 648.187Z" fill="#07051B"/>
<path fill-rule="evenodd" clip-rule="evenodd" d="M414.64 543.118C407.98 577.77 391.271 623.395 368.128 650.265C396.756 627.402 414.116 579.015 414.64 543.118Z" fill="#07051B"/>
<path fill-rule="evenodd" clip-rule="evenodd" d="M172.21 564.131C168.235 554.477 182.611 554.81 190.936 536.437C194.553 554.872 179.561 551.142 172.21 564.131Z" fill="#07051B"/>
<path fill-rule="evenodd" clip-rule="evenodd" d="M497.526 263.661C502.574 264.288 506.157 268.89 505.529 273.938C505.229 276.342 504.028 278.414 502.311 279.856L508.424 280.616L508.078 283.395L497.924 282.131L497.955 281.878L498.269 279.352L498.316 278.981C500.664 278.247 502.488 276.2 502.812 273.6C503.254 270.054 500.736 266.819 497.188 266.378C493.641 265.936 490.407 268.454 489.966 272.002C489.593 274.995 491.329 277.768 494.014 278.823L493.667 281.602L483.514 280.338L483.86 277.559L488.919 278.188C487.605 276.369 486.95 274.066 487.248 271.662C487.878 266.616 492.479 263.031 497.526 263.661ZM483.205 282.816L482.858 285.594L507.424 288.651L507.771 285.871L483.205 282.816Z" fill="#07051B"/>
<path d="M464.304 542.94L471.578 540.04L473.401 539.314L473.716 541.252L474.846 548.184L471.732 548.69L471.315 546.123L469.556 549.172C470.135 549.565 470.675 550.011 471.168 550.504C473.154 552.49 474.384 555.235 474.384 558.265C474.384 561.294 473.154 564.041 471.168 566.027C469.182 568.013 466.437 569.242 463.406 569.242C460.38 569.242 457.637 568.013 455.647 566.023L455.644 566.027C453.657 564.041 452.428 561.296 452.428 558.265C452.428 555.234 453.657 552.489 455.644 550.503C457.63 548.516 460.375 547.287 463.406 547.287C464.558 547.287 465.668 547.465 466.711 547.794L468.527 544.651L465.468 545.87L464.304 542.94ZM468.93 552.74C467.516 551.328 465.563 550.453 463.404 550.453C461.247 550.453 459.292 551.327 457.88 552.74C456.466 554.153 455.592 556.108 455.592 558.265C455.592 560.423 456.468 562.377 457.88 563.791V563.796C459.29 565.206 461.244 566.079 463.404 566.079C465.561 566.079 467.516 565.204 468.93 563.791C470.344 562.377 471.218 560.423 471.218 558.265C471.216 556.106 470.342 554.153 468.93 552.74Z" fill="#07051B"/>
<path d="M248.505 491.815L257.354 488.288L259.571 487.403L259.956 489.762L261.328 498.193L257.538 498.81L257.03 495.686L254.89 499.395C255.595 499.872 256.252 500.416 256.852 501.016C259.268 503.433 260.764 506.771 260.764 510.459C260.764 514.147 259.269 517.487 256.852 519.902C254.437 522.319 251.095 523.816 247.409 523.816C243.728 523.816 240.388 522.319 237.969 519.9L237.966 519.904C235.55 517.488 234.053 514.149 234.053 510.461C234.053 506.774 235.548 503.433 237.966 501.017C240.383 498.602 243.723 497.107 247.409 497.107C248.811 497.107 250.161 497.322 251.431 497.724L253.638 493.898L249.919 495.383L248.505 491.815ZM254.131 503.738C252.412 502.019 250.033 500.954 247.409 500.954C244.785 500.954 242.407 502.017 240.686 503.738C238.967 505.457 237.904 507.833 237.904 510.459C237.904 513.085 238.967 515.462 240.686 517.181V517.188C242.402 518.904 244.779 519.966 247.409 519.966C250.033 519.966 252.412 518.9 254.131 517.181C255.85 515.462 256.914 513.085 256.914 510.459C256.914 507.833 255.85 505.457 254.131 503.738Z" fill="#07051B"/>
<path d="M446.084 639.495C449.41 640.725 452.251 642.952 454.241 645.811C456.175 648.592 457.313 651.973 457.313 655.618C457.313 660.365 455.389 664.663 452.279 667.772C449.168 670.882 444.872 672.806 440.125 672.806C438.099 672.806 436.144 672.449 434.323 671.796C432.441 671.122 430.713 670.129 429.203 668.884L425.53 665.856L430.235 666.537C430.606 666.591 430.982 666.634 431.358 666.66C431.711 666.685 432.089 666.699 432.485 666.699C436.758 666.699 440.627 664.966 443.429 662.166C446.229 659.366 447.961 655.497 447.961 651.225C447.961 649.425 447.658 647.704 447.101 646.111C446.522 644.456 445.665 642.923 444.587 641.573L441.601 637.832L446.084 639.495ZM452.051 647.333C451.268 646.209 450.33 645.201 449.27 644.339C449.391 644.633 449.505 644.933 449.612 645.237C450.27 647.118 450.629 649.133 450.629 651.225C450.629 656.235 448.596 660.771 445.313 664.054C442.582 666.787 438.982 668.651 434.963 669.201L435.22 669.296C436.741 669.842 438.392 670.139 440.125 670.139C444.134 670.139 447.765 668.513 450.393 665.885C453.02 663.258 454.644 659.627 454.644 655.618C454.644 652.537 453.686 649.68 452.051 647.333Z" fill="#07051B"/>
<path d="M262.728 616.695C266.081 616.329 269.267 617.359 271.707 619.319L271.712 619.324C274.152 621.285 275.845 624.174 276.211 627.528C276.576 630.881 275.547 634.068 273.586 636.507L273.583 636.512C271.943 638.554 269.654 640.071 266.986 640.728L267.719 647.442L274.374 646.714L274.664 649.366L268.009 650.094L268.488 654.495L265.836 654.787L265.355 650.385L258.698 651.111L258.409 648.459L265.066 647.733L264.34 641.083C261.371 641.156 258.584 640.147 256.398 638.39L256.393 638.385C253.953 636.425 252.26 633.535 251.895 630.181C251.529 626.83 252.558 623.642 254.517 621.202L254.522 621.195C256.484 618.754 259.374 617.062 262.728 616.695ZM270.043 621.395C268.136 619.866 265.643 619.061 263.016 619.348C260.39 619.635 258.127 620.957 256.596 622.864C255.067 624.771 254.262 627.264 254.548 629.892C254.836 632.518 256.159 634.78 258.064 636.311C259.971 637.84 262.465 638.645 265.091 638.359C267.717 638.073 269.979 636.75 271.512 634.844C273.042 632.937 273.847 630.442 273.559 627.816C273.271 625.188 271.948 622.928 270.043 621.395Z" fill="#07051B"/>
<path d="M90.2726 418.423C92.583 415.966 95.6744 414.676 98.802 414.578H98.8089C101.937 414.482 105.102 415.576 107.561 417.887C110.018 420.197 111.307 423.287 111.404 426.414V426.421C111.485 429.037 110.732 431.68 109.131 433.913L114.054 438.537L118.639 433.658L120.583 435.485L115.999 440.365L119.225 443.397L117.397 445.342L114.171 442.31L109.585 447.189L107.64 445.361L112.226 440.482L107.352 435.899C105.143 437.885 102.369 438.928 99.5676 439.016H99.5607C96.433 439.113 93.2692 438.018 90.8088 435.708C88.3519 433.397 87.0622 430.308 86.9639 427.18V427.171C86.8674 424.047 87.9639 420.882 90.2726 418.423ZM98.8882 417.239C96.4451 417.316 94.0278 418.326 92.2175 420.251C90.4088 422.175 89.5502 424.651 89.6243 427.094C89.7019 429.539 90.7123 431.954 92.6364 433.765C94.5623 435.573 97.0365 436.432 99.4796 436.358C101.924 436.28 104.342 435.27 106.15 433.346C107.959 431.42 108.818 428.946 108.744 426.501C108.666 424.058 107.656 421.639 105.731 419.83C103.807 418.023 101.333 417.164 98.8882 417.239Z" fill="#07051B"/>
<path fill-rule="evenodd" clip-rule="evenodd" d="M405.335 423.089C407.487 423.089 409.232 424.833 409.232 426.985C409.232 429.137 407.487 430.882 405.335 430.882C403.183 430.882 401.439 429.137 401.439 426.985C401.439 424.833 403.183 423.089 405.335 423.089ZM405.335 411.335C401.013 411.335 397.101 413.087 394.268 415.918C391.437 418.751 389.683 422.663 389.683 426.985C389.683 431.306 391.437 435.22 394.268 438.053C397.101 440.884 401.013 442.637 405.335 442.637C409.658 442.637 413.57 440.885 416.401 438.053C419.234 435.221 420.985 431.308 420.985 426.985C420.985 422.663 419.234 418.751 416.401 415.918C413.572 413.087 409.658 411.335 405.335 411.335ZM414.515 417.806C412.166 415.457 408.92 414.004 405.335 414.004C401.751 414.004 398.504 415.457 396.156 417.806C393.808 420.154 392.352 423.401 392.352 426.985C392.352 430.57 393.806 433.816 396.156 436.165C398.504 438.513 401.751 439.966 405.335 439.966C408.92 439.966 412.166 438.513 414.515 436.165C416.863 433.815 418.316 430.57 418.316 426.985C418.318 423.401 416.865 420.154 414.515 417.806Z" fill="#07051B"/>
<path d="M467.581 452.915C468.64 453.065 469.691 453.375 470.704 453.856C471.697 454.329 472.586 454.937 473.359 455.648C474.031 456.267 474.616 456.962 475.1 457.712C475.712 457.353 476.186 456.881 476.533 456.306C476.964 455.594 477.212 454.713 477.3 453.694L477.455 451.906L478.3 453.489C478.673 454.186 479.083 455.041 479.266 455.932C479.46 456.891 479.397 457.882 478.766 458.765C478.44 459.222 478.043 459.639 477.579 460.003C477.238 460.272 476.859 460.515 476.45 460.729C476.767 461.882 476.895 463.089 476.816 464.3C476.728 465.619 476.393 466.946 475.793 468.208C475.167 469.522 474.307 470.653 473.288 471.572C472.229 472.526 470.997 473.253 469.672 473.722L469.667 473.724C468.49 474.141 467.234 474.355 465.965 474.343C464.89 474.334 463.805 474.164 462.748 473.819L460.776 477.962L465.353 480.143L465.834 480.372L465.605 480.853L464.645 482.871L464.416 483.352L463.934 483.122L459.357 480.943L457.991 483.807L457.762 484.286L457.281 484.057L455.264 483.096L454.783 482.867L455.012 482.386L456.376 479.522L451.798 477.341L451.315 477.112L451.545 476.629L452.505 474.614L452.734 474.133L453.215 474.362L457.793 476.543L459.798 472.333C458.96 471.733 458.227 471.027 457.61 470.245C456.883 469.319 456.314 468.281 455.922 467.179L455.915 467.157C455.452 465.841 455.241 464.432 455.314 463.013C455.384 461.641 455.721 460.26 456.345 458.948C456.931 457.715 457.727 456.643 458.667 455.755C459.548 454.924 460.559 454.253 461.645 453.763C461.631 453.175 461.678 452.612 461.784 452.08C461.917 451.418 462.145 450.808 462.455 450.26C462.991 449.315 463.864 448.837 464.814 448.61C465.697 448.399 466.645 448.413 467.434 448.456L469.224 448.555L467.672 449.448C466.807 449.946 466.124 450.529 465.659 451.205C465.317 451.699 465.091 452.253 464.995 452.867C465.85 452.779 466.717 452.793 467.581 452.915ZM466.462 456.115C465.474 456.063 464.491 456.212 463.572 456.536C462.657 456.862 461.802 457.367 461.067 458.029C460.362 458.665 459.764 459.451 459.329 460.367C458.895 461.282 458.66 462.239 458.61 463.189C458.559 464.177 458.707 465.16 459.029 466.077C459.355 466.993 459.86 467.848 460.524 468.582C461.16 469.288 461.946 469.886 462.86 470.32C463.776 470.757 464.734 470.989 465.683 471.039C466.671 471.091 467.653 470.943 468.571 470.62C469.486 470.295 470.341 469.789 471.076 469.126C471.781 468.489 472.379 467.703 472.814 466.789C473.25 465.874 473.485 464.915 473.535 463.967C473.586 462.979 473.438 461.996 473.114 461.077C472.788 460.163 472.283 459.306 471.621 458.572C470.985 457.865 470.198 457.268 469.283 456.834C468.369 456.398 467.41 456.165 466.462 456.115Z" fill="#07051B"/>
<path d="M473.474 416.28L479.003 413.84L473.805 402.449L469.806 408.568L467.575 407.109L472.894 398.966L473.384 398.218L474.262 398.388L484.9 400.451L484.4 403.068L476.293 401.495L481.436 412.768L488.238 409.766L489.312 412.206L482.541 415.192L485.967 422.701L483.548 423.804L480.108 416.265L474.548 418.718L473.474 416.28Z" fill="#07051B"/>
<path d="M338.27 409.066C336.91 406.332 335.312 404.723 333.712 404.013C332.688 403.557 331.655 403.48 330.691 403.713C329.7 403.952 328.76 404.525 327.958 405.354C326.512 406.851 325.517 409.158 325.398 411.913C325.287 414.409 326.653 415.706 328.036 417.018C329.669 418.568 331.32 420.135 331.588 423.235C331.689 424.415 331.784 425.544 331.377 427.049C330.989 428.484 330.141 430.182 328.377 432.463L326.272 430.837C327.789 428.877 328.5 427.485 328.803 426.359C329.088 425.308 329.012 424.406 328.931 423.465C328.75 421.363 327.469 420.147 326.201 418.947C324.377 417.216 322.577 415.504 322.739 411.799C322.891 408.364 324.172 405.442 326.041 403.509C327.194 402.316 328.575 401.488 330.067 401.128C331.588 400.759 333.205 400.878 334.798 401.585C335.996 402.118 337.174 402.99 338.272 404.247V399.092H332.441V396.423H346.771V399.092H340.939V427.909H338.27V409.066Z" fill="#07051B"/>
<path d="M243.365 432.815L249.695 431.623L244.055 408.409L246.536 407.809L252.207 431.153L262.155 429.282C260.169 428.123 258.258 426.844 256.557 425.397C253.889 423.13 251.739 420.454 250.601 417.184C249.245 413.282 250.126 409.77 252.101 407.444C252.962 406.432 254.034 405.642 255.224 405.142C256.426 404.637 257.745 404.425 259.083 404.57C262.002 404.89 265.003 406.885 267.059 411.221L264.746 412.313C263.127 408.897 260.912 407.342 258.812 407.111C257.907 407.013 257.021 407.154 256.214 407.492C255.396 407.835 254.653 408.385 254.051 409.094C252.612 410.787 251.986 413.394 253.012 416.342C253.981 419.132 255.862 421.453 258.207 423.446C260.624 425.503 263.543 427.218 266.488 428.741L269.784 430.447L266.138 431.132L252.81 433.637L254.207 439.391L251.726 439.991L250.298 434.111L243.834 435.327L243.365 432.815Z" fill="#07051B"/>
<path d="M252.198 358.51L256.143 374.204C258.074 374.419 260.084 374.924 262.169 375.718L261.22 378.209C257.324 376.726 253.78 376.371 250.601 377.155C247.441 377.935 244.587 379.849 242.041 382.911L239.998 381.211C241.625 379.252 243.379 377.7 245.256 376.549L241.423 361.302C239.275 361.14 237.032 360.612 234.692 359.722L235.641 357.231C239.539 358.714 243.08 359.069 246.26 358.285C249.418 357.507 252.274 355.591 254.818 352.529L256.862 354.229C255.408 355.979 253.853 357.405 252.198 358.51ZM253.368 374.097L249.789 359.86C248.853 360.29 247.887 360.626 246.896 360.871C246.006 361.09 245.099 361.233 244.172 361.304L247.692 375.309C248.432 375.005 249.189 374.759 249.965 374.568C251.068 374.297 252.205 374.14 253.368 374.097Z" fill="#07051B"/>
<path d="M323.065 354.584H328.406C328.021 351.555 326.492 348.489 323.913 345.396L325.956 343.696C328.954 347.293 330.701 350.921 331.082 354.584H334.253C334.634 350.922 336.38 347.293 339.377 343.696L341.42 345.396C338.841 348.489 337.311 351.555 336.927 354.584H342.27V357.253H336.889C337.187 360.278 338.658 363.329 341.396 366.41L339.404 368.171C336.199 364.562 334.51 360.922 334.22 357.252H331.118C330.828 360.924 329.139 364.567 325.934 368.176L323.942 366.404C326.68 363.322 328.149 360.272 328.447 357.252H323.068V354.584H323.065Z" fill="#07051B"/>
<path d="M403.547 358.869C402.04 357.748 400.89 357.47 400.069 357.793C399.257 358.113 398.636 359.06 398.238 360.376C397.771 361.914 397.633 363.884 397.836 365.986C398.031 368.008 398.542 370.134 399.374 372.1C402.242 370.112 402.6 367.02 403.212 361.682C403.314 360.803 403.421 359.87 403.547 358.869ZM418.594 355.482C418.883 355.301 419.187 355.158 419.494 355.055C419.997 354.886 420.521 354.822 421.038 354.872C421.561 354.922 422.071 355.084 422.549 355.369C423.437 355.896 424.197 356.836 424.661 358.226L422.137 359.07C421.89 358.332 421.556 357.876 421.19 357.658C421.057 357.581 420.919 357.534 420.78 357.522C420.64 357.508 420.488 357.529 420.337 357.579C419.994 357.695 419.65 357.953 419.352 358.343C419.752 362.386 418.687 364.931 417.812 367.014C417.064 368.8 416.499 370.148 417.768 371.952L415.588 373.483C413.476 370.479 414.287 368.548 415.357 365.989C416.143 364.117 417.109 361.815 416.652 358.172C416.54 357.284 416.293 356.691 415.973 356.353C415.799 356.169 415.592 356.067 415.38 356.041C415.126 356.01 414.835 356.077 414.537 356.224C413.973 356.501 413.419 357.051 412.997 357.824L410.045 371.088L407.45 370.502L410.442 357.062C410.607 356.315 410.388 355.834 410.004 355.586C409.773 355.436 409.48 355.336 409.161 355.288C408.804 355.232 408.43 355.243 408.074 355.308C407.312 355.451 406.645 355.85 406.557 356.451C406.257 358.486 406.045 360.338 405.854 361.991C405.095 368.584 404.671 372.262 400.683 374.61C402.112 376.85 404.074 378.636 406.59 379.422L405.802 381.962C402.519 380.934 400.019 378.597 398.262 375.719C396.99 376.179 395.476 376.581 393.669 376.943L393.15 374.333C394.671 374.028 395.942 373.688 397.004 373.291C396.01 371.015 395.409 368.564 395.183 366.236C394.947 363.796 395.123 361.469 395.686 359.607C396.319 357.522 397.455 355.962 399.086 355.319C400.459 354.777 402.088 354.907 403.94 355.951C404.261 354.141 405.833 353.027 407.588 352.696C408.24 352.574 408.923 352.558 409.564 352.657C410.242 352.76 410.895 352.991 411.454 353.353C411.871 353.625 412.235 353.96 412.518 354.36C412.79 354.155 413.073 353.981 413.361 353.839C414.121 353.463 414.924 353.308 415.697 353.398C416.512 353.494 417.271 353.858 417.897 354.517C418.161 354.789 418.394 355.11 418.594 355.482Z" fill="#07051B"/>
<path d="M495.136 344.874C496.605 344.605 497.95 344.715 499.158 345.234C500.574 345.839 501.743 346.977 502.638 348.688L500.282 349.922C499.682 348.777 498.956 348.038 498.117 347.679C497.393 347.369 496.532 347.317 495.55 347.506C494.458 349.282 493.719 351.391 493.222 353.727C492.668 356.338 492.418 359.222 492.329 362.252L489.67 362.169C489.765 358.988 490.029 355.95 490.617 353.177C491.134 350.748 491.898 348.517 493.012 346.569C492.27 345.986 491.541 345.694 490.825 345.686C489.968 345.675 489.051 346.063 488.079 346.834L486.865 360.829L484.217 360.6L485.593 344.722L485.598 344.66C485.705 343.868 485.643 343.456 485.479 343.334C485.403 343.277 485.236 343.27 485.013 343.303C484.615 343.365 484.148 343.556 483.663 343.855V343.86C481.955 344.91 480.239 347.106 480.265 349.558L480.26 349.631C480.258 349.672 479.646 364.588 477.61 366.455C476.496 367.474 475.261 367.94 474.016 367.986C472.965 368.024 471.927 367.755 470.965 367.267C470.049 366.803 469.203 366.138 468.487 365.355C467.111 363.852 466.173 361.867 466.103 359.984L468.763 359.891C468.808 361.133 469.473 362.491 470.451 363.56C470.961 364.117 471.547 364.583 472.165 364.896C472.735 365.188 473.335 365.346 473.92 365.326C474.554 365.302 475.203 365.048 475.813 364.489C476.963 363.436 477.553 350.643 477.599 349.579H477.598C477.563 346.1 479.917 343.034 482.267 341.589L482.268 341.593C483.058 341.106 483.868 340.787 484.615 340.674C485.537 340.534 486.391 340.691 487.074 341.2C487.743 341.7 488.186 342.486 488.284 343.594C489.141 343.206 490.003 343.015 490.868 343.025C492.355 343.043 493.779 343.651 495.136 344.874Z" fill="#07051B"/>
<path d="M403.107 292.673C403.752 294.149 404.672 295.073 405.643 295.487C406.202 295.725 406.779 295.792 407.324 295.696C407.86 295.601 408.374 295.34 408.809 294.925C409.553 294.213 410.079 293.046 410.165 291.446C410.184 291.087 409.828 289.949 409.376 288.511C408.796 286.663 408.076 284.363 407.705 282.033C406.941 277.23 407.665 272.566 413.686 271.609C415.288 271.356 416.605 271.623 417.679 272.254C418.652 272.825 419.385 273.678 419.917 274.695C420.41 275.637 420.729 276.721 420.907 277.842C421.4 280.942 420.798 284.514 419.845 286.139L417.553 284.794C418.26 283.589 418.683 280.79 418.281 278.259C418.145 277.402 417.912 276.594 417.562 275.925C417.252 275.332 416.847 274.847 416.334 274.545C415.778 274.218 415.045 274.087 414.103 274.235C410.203 274.854 409.784 278.175 410.331 281.614C410.665 283.723 411.36 285.939 411.919 287.718C412.448 289.406 412.867 290.742 412.821 291.582C412.696 293.918 411.85 295.699 410.641 296.853C409.819 297.639 408.829 298.134 407.781 298.32C406.741 298.504 405.645 298.382 404.598 297.934C403.041 297.27 401.605 295.884 400.665 293.734L403.107 292.673Z" fill="#07051B"/>
<path d="M419.778 283.652C421.407 283.652 422.86 284.487 423.891 285.832C424.843 287.077 425.433 288.775 425.433 290.632C425.433 292.489 424.843 294.187 423.891 295.432C422.86 296.777 421.407 297.611 419.778 297.611C418.148 297.611 416.693 296.777 415.662 295.432C414.71 294.189 414.119 292.489 414.119 290.632C414.119 288.775 414.709 287.077 415.662 285.832C416.695 284.487 418.148 283.652 419.778 283.652ZM421.778 287.449C421.245 286.752 420.536 286.321 419.779 286.321C419.022 286.321 418.312 286.752 417.779 287.449C417.169 288.247 416.79 289.371 416.79 290.632C416.79 291.892 417.169 293.016 417.779 293.816C418.312 294.511 419.021 294.942 419.779 294.942C420.536 294.942 421.245 294.511 421.778 293.816C422.388 293.018 422.767 291.894 422.767 290.632C422.766 289.371 422.388 288.246 421.778 287.449Z" fill="#07051B"/>
<path d="M316.425 266.247L316.152 258.712L316.059 256.112L318.223 257.559L325.802 262.628L325.649 258.371L325.556 255.769L327.72 257.215L335.299 262.284L335.146 258.028L335.051 255.426L337.215 256.872L347.037 263.441L345.875 265.185L344.913 265.217L337.906 260.533L338.083 265.466L336.38 265.526L335.418 265.562L328.409 260.876L328.589 265.807L326.883 265.869L325.921 265.904L318.914 261.217L319.092 266.15L316.425 266.247Z" fill="#07051B"/>
<path d="M319.563 279.447L319.292 271.912L319.197 269.31L321.363 270.759L328.942 275.826L328.789 271.569L328.694 268.967L330.858 270.416L338.439 275.483L338.284 271.228L338.191 268.626L340.354 270.073L350.175 276.64L349.013 278.383L348.053 278.417L341.044 273.731L341.222 278.664L339.518 278.726L338.556 278.761L331.547 274.074L331.727 279.007L330.022 279.069L329.059 279.104L322.052 274.416L322.23 279.35L319.563 279.447Z" fill="#07051B"/>
<path d="M242.342 289.099C244.739 289.099 246.911 290.072 248.482 291.642C250.053 293.213 251.025 295.384 251.025 297.782C251.025 300.179 250.053 302.351 248.482 303.922C246.911 305.492 244.739 306.465 242.342 306.465C239.946 306.465 237.773 305.492 236.202 303.922C234.632 302.351 233.659 300.179 233.659 297.782C233.659 295.384 234.632 293.213 236.202 291.642C237.773 290.072 239.946 289.099 242.342 289.099ZM246.596 293.53C245.508 292.442 244.004 291.768 242.344 291.768C240.684 291.768 239.178 292.442 238.09 293.53C237.002 294.62 236.328 296.123 236.328 297.784C236.328 299.444 237.002 300.949 238.09 302.037C239.178 303.125 240.684 303.798 242.344 303.798C244.004 303.798 245.508 303.123 246.596 302.037C247.684 300.949 248.358 299.444 248.358 297.784C248.358 296.122 247.684 294.618 246.596 293.53Z" fill="#07051B"/>
<path d="M237.033 292.421C235.774 290.347 234.308 289.064 232.681 288.394C231.048 287.719 229.2 287.64 227.201 287.98L226.765 285.352C229.229 284.933 231.558 285.052 233.693 285.931C235.834 286.816 237.731 288.447 239.305 291.045L237.033 292.421Z" fill="#07051B"/>
<path d="M242.12 290.477C242.758 287.508 244.018 285.345 245.755 283.809C247.486 282.278 249.651 281.404 252.122 280.994L252.549 283.621C250.556 283.952 248.839 284.632 247.517 285.801C246.203 286.963 245.237 288.656 244.725 291.03L242.12 290.477Z" fill="#07051B"/>
<path d="M240.998 221.456L239.292 210.308C237.741 204.937 235.179 202.413 232.853 201.756C231.771 201.451 230.759 201.563 229.979 201.984C229.247 202.378 228.707 203.056 228.517 203.908C228.178 205.434 228.891 207.537 231.359 209.803L229.357 211.973C225.995 208.887 225.086 205.725 225.634 203.266C226.017 201.546 227.102 200.178 228.578 199.382C230.007 198.613 231.798 198.385 233.65 198.908C235.91 199.547 238.291 201.327 240.157 204.649C241.048 200.944 242.855 198.584 244.855 197.354C246.495 196.347 248.28 196.078 249.866 196.43C251.504 196.794 252.918 197.815 253.755 199.366C254.95 201.584 254.938 204.872 252.543 208.756L250.026 207.211C251.783 204.361 251.899 202.142 251.157 200.766C250.743 199.997 250.04 199.492 249.226 199.313C248.362 199.122 247.357 199.287 246.398 199.875C244.34 201.141 242.561 204.268 242.531 209.856L243.923 221.049L242.459 221.236L240.998 221.456Z" fill="#07051B"/>
<path d="M341.56 158.261L343.969 153.647L346.324 154.876L343.27 160.728C344.915 163.347 346.327 166.371 346.876 169.073L344.27 169.594C343.4 165.299 340.055 160.068 337.444 157.602C336.965 157.149 336.534 156.811 336.184 156.619C336.175 156.918 336.218 157.385 336.327 158.05C336.389 158.428 336.56 159.152 336.768 160.037C337.472 163.014 338.589 167.744 338.02 170.537L337.834 171.454C337.865 171.694 337.881 171.94 337.881 172.187C337.881 172.846 337.768 173.478 337.56 174.068L345.536 179.289L344.077 181.52L336.101 176.297C335.094 177.242 333.737 177.821 332.248 177.821C330.691 177.821 329.282 177.19 328.263 176.17C327.244 175.151 326.613 173.742 326.613 172.187C326.613 170.632 327.244 169.221 328.263 168.202C329.282 167.183 330.691 166.552 332.248 166.552C333.448 166.552 334.558 166.926 335.472 167.566C335.284 165.337 334.634 162.587 334.174 160.64C333.962 159.742 333.787 159.007 333.701 158.478C333.398 156.632 333.584 155.4 334.113 154.683C334.803 153.744 335.781 153.578 336.929 154.031C337.639 154.312 338.443 154.881 339.268 155.663C339.998 156.356 340.781 157.244 341.56 158.261ZM334.601 173.989L335.118 171.451C334.984 170.927 334.712 170.461 334.343 170.09C333.806 169.554 333.065 169.221 332.246 169.221C331.427 169.221 330.686 169.554 330.149 170.09C329.613 170.627 329.28 171.37 329.28 172.187C329.28 173.006 329.613 173.747 330.149 174.283C330.686 174.82 331.427 175.152 332.246 175.152C333.065 175.152 333.806 174.82 334.343 174.283C334.434 174.192 334.52 174.094 334.601 173.989Z" fill="#07051B"/>
<path d="M418.619 186.552C416.373 186.716 414.279 187.175 412.353 187.949C409.107 189.254 406.305 191.475 404.003 194.713L401.836 193.172C404.445 189.499 407.643 186.975 411.364 185.478C415.347 183.877 424.745 182.39 428.183 185.828C429.326 186.971 430.035 188.554 430.035 190.299C430.035 192.04 429.328 193.62 428.183 194.765V194.77C427.04 195.913 425.457 196.622 423.712 196.622C421.971 196.622 420.392 195.915 419.247 194.77L419.242 194.765C418.098 193.622 417.39 192.042 417.39 190.299C417.39 188.897 417.845 187.601 418.619 186.552ZM426.295 187.716C425.635 187.056 424.719 186.647 423.711 186.647C422.7 186.647 421.786 187.056 421.124 187.715L421.126 187.716C420.466 188.377 420.055 189.29 420.055 190.301C420.055 191.311 420.462 192.223 421.121 192.885L421.126 192.891C421.786 193.547 422.7 193.954 423.709 193.954C424.717 193.954 425.631 193.546 426.293 192.885L426.297 192.887C426.955 192.227 427.364 191.311 427.364 190.301C427.364 189.29 426.955 188.377 426.295 187.716Z" fill="#07051B"/>
<path d="M414.405 203.813C416.654 203.649 418.745 203.191 420.673 202.416C423.918 201.111 426.719 198.891 429.023 195.651L431.19 197.192C428.581 200.865 425.385 203.389 421.662 204.885C417.68 206.487 408.281 207.973 404.843 204.535C403.7 203.392 402.991 201.81 402.991 200.065C402.991 198.323 403.698 196.744 404.843 195.599V195.594C405.986 194.451 407.569 193.742 409.314 193.742C411.055 193.742 412.635 194.449 413.779 195.594L413.785 195.599C414.928 196.744 415.636 198.323 415.636 200.065C415.636 201.468 415.18 202.765 414.405 203.813ZM406.729 202.647C407.39 203.31 408.304 203.718 409.312 203.718C410.323 203.718 411.236 203.31 411.898 202.651L411.895 202.647C412.557 201.987 412.966 201.073 412.966 200.065C412.966 199.056 412.559 198.141 411.902 197.482L411.897 197.477C411.236 196.82 410.323 196.413 409.314 196.413C408.305 196.413 407.391 196.822 406.731 197.484L406.729 197.482C406.071 198.142 405.662 199.056 405.662 200.066C405.66 201.073 406.069 201.987 406.729 202.647Z" fill="#07051B"/>
<path fill-rule="evenodd" clip-rule="evenodd" d="M138.519 90.6875C132.934 121.083 128.036 132.9 104.808 135.926C128.034 138.952 132.934 150.769 138.519 181.165C144.104 150.769 149.002 138.952 172.228 135.926C149.002 132.9 144.104 121.083 138.519 90.6875Z" fill="white"/>
<path fill-rule="evenodd" clip-rule="evenodd" d="M601.649 317.904C596.064 348.3 591.166 360.117 567.939 363.143C591.166 366.169 596.066 377.986 601.649 408.381C607.233 377.986 612.131 366.169 635.359 363.143C612.133 360.117 607.233 348.3 601.649 317.904Z" fill="white"/>
<path fill-rule="evenodd" clip-rule="evenodd" d="M129.703 671.397C124.118 701.793 119.22 713.61 95.9938 716.636C119.22 719.662 124.12 731.479 129.703 761.875C135.287 731.479 140.186 719.662 163.414 716.636C140.188 713.61 135.287 701.794 129.703 671.397Z" fill="white"/>
<path fill-rule="evenodd" clip-rule="evenodd" d="M573.907 671.397C568.323 701.793 563.424 713.61 540.196 716.636C563.422 719.662 568.323 731.479 573.907 761.875C579.492 731.479 584.39 719.662 607.618 716.636C584.392 713.61 579.492 701.794 573.907 671.397Z" fill="white"/>
<path fill-rule="evenodd" clip-rule="evenodd" d="M574.664 540.994C570.702 562.558 567.226 570.941 550.748 573.088C567.226 575.234 570.702 583.617 574.664 605.181C578.626 583.617 582.102 575.234 598.58 573.088C582.102 570.941 578.624 562.558 574.664 540.994Z" fill="white"/>
<path fill-rule="evenodd" clip-rule="evenodd" d="M23.952 484.215C19.9899 505.779 16.514 514.162 0.0361481 516.309C16.514 518.455 19.9899 526.838 23.952 548.402C27.9141 526.838 31.39 518.455 47.8679 516.309C31.3883 514.162 27.9124 505.779 23.952 484.215Z" fill="white"/>
<path fill-rule="evenodd" clip-rule="evenodd" d="M308.233 0.213867C304.271 21.778 300.795 30.1608 284.317 32.3074C300.795 34.454 304.271 42.8369 308.233 64.401C312.195 42.8369 315.671 34.454 332.149 32.3074C315.669 30.1608 312.193 21.778 308.233 0.213867Z" fill="white"/>
<path fill-rule="evenodd" clip-rule="evenodd" d="M163.413 320.436C159.45 342 155.975 350.383 139.497 352.529C155.975 354.676 159.45 363.059 163.413 384.623C167.375 363.059 170.851 354.676 187.328 352.529C170.851 350.383 167.375 342 163.413 320.436Z" fill="white"/>
<path fill-rule="evenodd" clip-rule="evenodd" d="M575.145 224.963C572.726 238.129 570.603 243.248 560.543 244.558C570.603 245.869 572.726 250.988 575.145 264.154C577.564 250.988 579.686 245.869 589.747 244.558C579.686 243.248 577.564 238.129 575.145 224.963Z" fill="white"/>
<path fill-rule="evenodd" clip-rule="evenodd" d="M80.4877 243.993C78.0687 257.159 75.9463 262.278 65.8858 263.588C75.9463 264.899 78.0687 270.018 80.4877 283.183C82.9067 270.018 85.0292 264.899 95.0896 263.588C85.0292 262.278 82.9067 257.159 80.4877 243.993Z" fill="white"/>
<path fill-rule="evenodd" clip-rule="evenodd" d="M635.361 451.455C632.942 464.62 630.819 469.739 620.759 471.05C630.819 472.36 632.942 477.479 635.361 490.645C637.78 477.479 639.902 472.36 649.963 471.05C639.902 469.739 637.78 464.62 635.361 451.455Z" fill="white"/>
<path fill-rule="evenodd" clip-rule="evenodd" d="M484.37 62.1904C481.951 75.3561 479.828 80.4752 469.768 81.7855C479.828 83.0959 481.951 88.2149 484.37 101.381C486.789 88.2149 488.911 83.0959 498.972 81.7855C488.911 80.4752 486.789 75.3561 484.37 62.1904Z" fill="white"/>
<path fill-rule="evenodd" clip-rule="evenodd" d="M36.8686 609.257C34.4496 622.423 32.3272 627.542 22.2667 628.852C32.3272 630.162 34.4496 635.281 36.8686 648.447C39.2876 635.281 41.4101 630.162 51.4705 628.852C41.4101 627.542 39.2876 622.423 36.8686 609.257Z" fill="white"/>
<path d="M254.043 713.7L254.497 704.043C253.626 707.231 253.536 710.497 254.043 713.7Z" fill="white"/>
<path d="M520.559 235.638C516.766 227.178 508.313 220.393 499.535 218.574C494.29 217.488 488.93 218.174 484.38 221.333C476.148 227.05 473.831 238 472.164 247.883C464.01 296.223 455.855 344.562 447.701 392.902C446.984 397.152 443.145 402.737 439.844 399.966C441.522 366.455 443.269 332.946 444.772 299.427C445.379 285.902 445.124 272.037 444.877 258.628C444.672 247.435 444.477 236.86 444.758 226.722C445.038 216.653 445.893 207.031 446.645 198.541C447.481 189.096 448.205 180.939 448.026 174.129C447.433 151.595 433.234 140.666 420.294 140.049C400.894 139.123 389.759 157.397 387.633 174.77L384.995 241.26C384.499 253.821 382.537 266.563 380.638 278.885C379.168 288.425 377.649 298.289 376.795 308.103C376.354 313.163 376.53 318.236 376.7 323.143C376.866 327.955 377.025 332.501 376.654 337.064C375.964 345.552 374.602 354.174 373.285 362.512C372.65 366.523 372.018 370.533 371.45 374.554C370.554 374.85 368.919 374.797 368.569 374.271C365.902 346.234 366.383 317.251 366.849 289.223C366.916 285.084 366.987 280.942 367.045 276.799C367.369 254.269 367.114 231.388 366.869 209.26L366.747 198.012C366.609 184.658 367.802 171.037 368.957 157.863C369.54 151.218 370.142 144.345 370.576 137.359C370.576 118.2 355.121 106.934 339.853 105.709C326.065 104.607 310.813 111.945 307.762 130.838L305.077 179.092C304.484 196.831 302.318 214.512 300.225 231.61C298.013 249.68 295.725 268.363 295.265 287.251C295.099 294.087 295.579 304.891 296.134 317.401C296.434 324.174 296.755 331.381 296.998 338.567L295.558 375.626C295.28 375.788 294.627 376.037 293.672 376.049C292.729 376.061 292.07 375.831 291.806 375.673L283.835 318.367C281.984 305.049 280.456 291.197 278.978 277.801C277.442 263.868 275.853 249.459 273.856 235.126C271.696 219.626 270.225 203.738 268.804 188.37C268.077 180.506 267.349 172.642 266.539 164.878C265.482 150.989 253.84 139.268 238.364 139.595C232.911 139.711 227.609 141.635 223.195 144.84C213.721 151.718 208.298 162.797 208.686 174.503C209.193 189.867 209.229 207.27 209.269 225.695C209.305 243.731 209.345 262.381 209.84 280.249C210.114 290.156 211.129 299.634 212.109 308.798C213.153 318.563 214.141 327.786 214.038 336.103L213.126 409.139L218.505 468.609C218.897 479.986 214.874 493.649 208.258 495.852C203.433 497.447 196.738 492.55 189.405 482.024L182.486 472.088C175.42 461.941 162.266 443.05 153.647 434.463C144.083 424.934 133.544 416.311 122.326 408.835C107.519 398.964 88.4361 397.518 72.3273 405.001C69.3686 406.375 66.7117 408.423 64.9427 411.165C61.1444 417.049 61.4099 424.322 65.1703 429.76L92.9586 459.984C101.073 471.752 107.657 484.538 112.528 497.988C112.702 498.471 130.447 546.682 145.997 562.234C174.056 590.295 188.248 631.019 188.388 631.426L188.71 632.102C196.395 644.273 207.405 654.832 218.053 665.044C233.612 679.963 248.307 694.057 250.1 710.767C251.588 724.628 250.926 748.837 250.344 770.196C250.073 780.104 249.814 789.541 249.809 796.906C249.807 798.741 251.309 800.21 253.145 800.187C254.387 799.025 255.135 798.324 256.376 797.161C257.061 789.234 260.914 781.803 267.282 776.93C275.889 770.342 286.868 768.327 297.52 767.925C307.387 767.554 317.258 768.535 327.134 768.489C344.971 768.402 362.542 764.977 380.256 763.347C397.939 761.72 415.523 762.566 432.729 767.158C444.965 770.423 453.89 780.944 454.857 793.572C454.898 794.111 454.94 794.651 454.981 795.191C455.108 796.839 456.481 798.111 458.134 798.122C458.157 798.122 458.177 798.122 458.198 798.122C460.06 798.134 461.531 796.553 461.386 794.696C459.129 765.958 457.5 736.235 468.143 709.534C474 694.838 483.343 681.756 489.509 667.187C498.637 645.618 500.432 621.755 501.797 598.374C508.011 491.976 507.725 384.987 522.383 279.42C524.409 264.744 526.616 249.154 520.559 235.638ZM394.046 175.422C396.628 154.701 408.898 145.956 419.987 146.483C430.386 146.98 441.098 155.773 441.586 174.297C441.755 180.737 441.048 188.724 440.227 197.97C439.663 204.322 438.877 217.633 438.501 224.381C438.3 228.012 436.698 231.49 433.853 233.755C432.719 234.659 431.475 235.431 430.175 236.043C425.313 238.336 419.792 238.776 414.417 238.785C409.466 238.793 404.399 238.44 399.849 236.488C399.816 236.474 399.785 236.46 399.753 236.447C394.856 234.312 391.92 229.219 392.13 223.881L394.046 175.422ZM384.342 298.249C385.125 292.073 386.075 285.904 387.006 279.866C388.532 269.963 390.085 259.792 390.925 249.566C390.975 248.947 391.323 248.392 391.861 248.081C395.528 245.959 399.575 244.564 403.773 243.99C413.961 242.595 424.47 243.705 434.17 247.111C436.631 247.974 438.289 250.283 438.332 252.89C438.363 254.823 438.398 256.773 438.434 258.747C438.679 272.056 438.932 285.818 438.334 299.139C438.246 301.113 438.157 303.079 438.067 305.032C437.629 314.598 430.67 322.853 421.198 324.253C420.556 324.348 419.913 324.419 419.27 324.467C411.046 325.075 402.927 322.406 395.377 319.089C395.08 318.958 394.771 318.806 394.456 318.637C387.152 314.73 383.301 306.467 384.342 298.249ZM310.456 197.05C310.941 191.184 311.313 185.287 311.512 179.377L314.148 131.702C316.769 115.978 329.327 111.316 339.336 112.131C351.657 113.121 364.131 122.102 364.138 137.156C363.716 143.859 363.118 150.692 362.538 157.297C361.473 169.456 360.378 181.992 360.302 194.475C360.286 196.981 359.559 199.434 358.124 201.488C354.923 206.07 349.986 209.589 344.598 211.264C335.807 213.996 326.165 212.508 317.574 209.201C317.386 209.129 317.179 209.036 316.957 208.926C312.555 206.741 310.051 201.944 310.456 197.05ZM301.705 287.406C302.158 268.832 304.425 250.307 306.618 232.391C306.624 232.353 306.627 232.316 306.632 232.278C307.634 224.091 314.413 217.739 322.658 217.507C322.827 217.502 322.996 217.498 323.164 217.495C329.35 217.362 335.541 217.546 341.697 218.188C343.416 218.367 345.16 218.593 346.9 218.891C354.862 220.262 360.621 227.257 360.68 235.336C360.78 249.099 360.799 262.969 360.602 276.704C360.543 280.842 360.474 284.978 360.405 289.115C360.393 289.88 360.38 290.647 360.368 291.416C360.264 297.76 356.504 303.649 350.576 305.906C350.535 305.922 350.495 305.937 350.454 305.953C346.429 307.451 342.04 307.563 337.745 307.594C330.414 307.646 322.965 307.489 315.95 305.356C313.957 304.749 311.994 303.961 310.134 302.992C304.815 300.227 301.61 294.603 301.684 288.608C301.687 288.194 301.694 287.792 301.705 287.406ZM215.705 225.681C215.665 207.205 215.631 189.753 215.119 174.287C214.802 164.687 219.267 155.602 227.06 149.989C233.273 145.521 241.414 144.797 248.314 148.109C255.025 151.33 259.544 157.942 260.116 165.456C260.932 173.284 261.656 181.123 262.382 188.963C263.466 200.693 264.597 212.719 266.032 224.683C266.842 231.44 263.271 238.114 256.973 240.693C256.932 240.71 256.89 240.726 256.851 240.743C250.456 243.319 243.345 243.347 236.461 242.979C233.857 242.84 231.167 242.602 228.536 242.148C221.143 240.874 215.721 234.481 215.705 226.978C215.707 226.545 215.707 226.112 215.705 225.681ZM218.509 308.11C217.541 299.07 216.541 289.722 216.274 280.07C216.115 274.363 216.012 268.564 215.936 262.731C215.881 258.504 218.002 254.54 221.541 252.226L222.841 251.376C227.554 248.297 233.145 247.005 238.766 247.307C246.476 247.723 256.135 245.014 263.444 249.252C264.464 249.843 265.394 250.549 266.256 251.335C268.635 253.507 270.085 256.524 270.458 259.725C271.192 266.044 271.889 272.321 272.57 278.504C273.665 288.437 274.792 298.615 276.059 308.661C276.984 315.999 273.232 323.208 266.604 326.491C263.195 328.179 259.473 329.419 255.845 330.415C248.866 332.334 241.605 333.824 234.421 332.939C234.369 332.932 234.317 332.926 234.266 332.92C226.3 331.895 220.197 325.253 219.445 317.256C219.162 314.268 218.841 311.22 218.509 308.11ZM110.633 477.547C103.012 461.914 92.3965 447.748 79.5325 436.046C76.5532 433.336 73.4049 430.699 71.2876 427.273C69.1703 423.848 68.2376 419.385 70.0221 415.775C71.379 413.028 74.0704 411.187 76.8377 409.872C85.8447 405.585 96.519 405.74 106.048 408.689C115.576 411.637 124.102 417.178 131.926 423.365C140.268 429.961 147.97 437.367 154.889 445.443C161.292 452.919 162.93 461.341 161.025 469.155C157.866 482.107 144.809 493.485 131.297 493.914C120.135 494.271 114.98 486.462 110.633 477.547ZM502.021 430.937C501.959 449.855 501.528 468.769 500.857 487.674C499.537 524.909 497.273 562.103 495.011 599.29C493.673 621.283 492.231 643.742 483.84 664.115C477.773 678.846 468.262 691.967 462.231 706.714C460.441 711.088 458.984 715.547 457.802 720.071C456.964 723.276 455.465 726.288 453.422 728.897C440.665 745.176 418.203 751.445 398.77 755.144C364.376 761.69 329.364 755.914 295.98 746.823C285.279 743.909 274.361 740.481 265.818 733.409C265.783 733.38 265.749 733.352 265.714 733.323C260.402 728.89 257.385 722.293 256.944 715.388C256.823 713.495 256.676 711.717 256.499 710.076C254.454 691.029 238.936 676.146 222.507 660.391C212.231 650.537 201.608 640.349 194.348 628.968C192.777 624.506 178.572 585.7 150.546 557.675C144.482 551.61 137.326 538.661 131.138 525.596C128.944 520.959 129.078 515.564 131.409 510.997C132.847 508.178 134.62 505.513 136.597 503.057C141.775 496.63 148.311 491.454 154.787 486.336C156.863 484.697 158.999 483.035 161.206 481.49C168.632 476.297 179.005 478.398 184.196 485.826C193.536 499.19 202.315 504.611 210.288 501.962C220.44 498.581 225.412 482.138 224.928 468.205L219.567 408.885C219.567 408.885 220.171 360.469 220.172 360.429C220.548 330.357 277.915 322.743 282.389 354.747L285.439 376.668C285.861 380.211 289.404 382.635 293.913 382.487C298.424 382.373 301.739 379.84 301.98 376.24L303.444 338.584L303.439 338.467C303.336 335.374 303.217 332.276 303.093 329.208C302.829 322.744 306.556 316.765 312.694 314.558C316.629 313.144 320.903 313.098 325.084 313.068C337.034 312.984 356.421 312.803 359.952 327.388C363.449 341.822 360.728 359.909 362.152 374.881C362.507 378.626 365.516 381.106 369.812 381.197C373.84 381.235 378.392 379.109 377.682 374.735C377.309 372.44 377.671 370.123 378.507 367.954C382.114 358.591 377.933 343.702 383.218 333.824C389.49 322.1 417.015 328.286 428.036 329.882C438.703 331.427 436.848 342.129 435.941 349.695C434.415 362.442 434.322 375.58 433.472 388.401C433.087 394.187 432.829 400.485 436.891 404.987C439.253 407.606 443.012 408.749 446.238 407.321C449.879 405.711 450.02 402.235 451.053 399.228C456.131 384.456 475.297 385.869 487.383 389.404C507.656 395.333 502.075 414.499 502.021 430.937ZM509.239 352.35C508.471 359.883 507.726 367.007 507.006 373.721C506.661 376.935 505.08 379.911 502.53 381.895C498.894 384.723 494.19 386.375 489.55 386.68C481.807 387.19 474.204 384.626 467.026 381.675C465.159 380.907 463.278 380.095 461.705 378.83C461.683 378.811 461.659 378.792 461.636 378.773C458.248 376.007 456.955 371.397 457.9 367.126C458.283 365.397 458.631 363.824 458.631 363.824C461.878 349.336 465.836 331.608 468.878 314.177C469.357 311.427 471.559 309.308 474.328 308.961C477.519 308.561 480.748 308.584 483.935 309.027L497.918 310.975C500.749 311.37 503.685 311.801 506.08 313.361C506.88 313.882 507.592 314.512 508.264 315.189C510.247 317.186 511.27 319.929 511.14 322.737C510.814 329.77 510.095 343.933 509.239 352.35ZM512.906 291.611C512.904 291.641 512.901 291.668 512.897 291.697C512.285 298.346 507.74 303.994 501.321 305.829C495.578 307.47 489.376 307.52 483.667 305.736C481.911 305.187 480.192 304.473 478.648 303.472C477.216 302.541 475.981 301.396 474.893 300.11C472.264 296.999 471.024 292.942 471.271 288.878C471.523 284.734 471.878 280.704 472.576 277.302L480.647 237.935C482.702 227.914 491.5 224.193 498.838 224.996C508.009 225.991 518.608 234.362 518.435 254.661C517.915 257.145 514.58 273.506 512.906 291.611Z" fill="white"/>
</svg>
