<svg width="650" height="800" viewBox="0 0 650 800" fill="none" xmlns="http://www.w3.org/2000/svg">
<path fill-rule="evenodd" clip-rule="evenodd" d="M378.674 510.757C396.038 517.993 414.285 522.911 432.462 523.385C413.512 520.124 397.407 515.038 382.013 508.195C378.45 506.61 375.925 503.333 375.272 499.488C374.739 496.343 374.127 493.555 373.436 491.217L368.508 477.288L371.403 491.722C371.884 494.219 372.287 497.545 372.622 501.486C372.71 502.522 371.627 503.276 370.7 502.803C359.941 497.338 349.277 490.998 337.947 483.786C314.221 468.679 271.124 463.246 243.089 462.337C243.287 462.374 243.494 462.408 243.693 462.446C299.719 487.886 332.604 540.592 346.592 599.15C349.815 612.633 350.963 623.469 352.398 637.112C353.975 567.332 313.983 484.405 243.827 462.47C273.103 467.846 309.999 471.143 335.109 487.402C345.053 493.84 355.767 500.057 366.96 505.472C370.799 507.329 373.268 511.167 373.434 515.43C374.765 549.833 373.034 604.846 369.751 622.641C377.179 602.181 380.003 546.628 376.855 512.076C376.767 511.081 377.753 510.373 378.674 510.757Z" fill="#07051B"/>
<path fill-rule="evenodd" clip-rule="evenodd" d="M458.189 503.347C443.072 500.912 430.851 498.828 416.826 491.16C386.566 474.612 395.919 472.951 358.622 461.451C332.594 453.425 338.417 453.594 319.503 445.725C347.115 465.908 360.658 461.777 386.602 477.082C422.052 497.993 420.533 501.216 459.998 504.524L461.95 504.698C459.815 503.629 460.165 503.666 458.189 503.347Z" fill="#07051B"/>
<path fill-rule="evenodd" clip-rule="evenodd" d="M330.717 647.973C331.436 604.378 319.156 575.494 290.849 542.904C317.365 586.869 321.894 597.155 330.717 647.973Z" fill="#07051B"/>
<path fill-rule="evenodd" clip-rule="evenodd" d="M414.604 542.904C407.944 577.557 391.235 623.181 368.091 650.051C396.719 627.188 414.08 578.801 414.604 542.904Z" fill="#07051B"/>
<path fill-rule="evenodd" clip-rule="evenodd" d="M172.173 563.917C168.199 554.263 182.575 554.596 190.899 536.223C194.517 554.658 179.525 550.929 172.173 563.917Z" fill="#07051B"/>
<path fill-rule="evenodd" clip-rule="evenodd" d="M497.49 263.447C502.538 264.074 506.121 268.676 505.493 273.724C505.193 276.128 503.992 278.2 502.274 279.642L508.388 280.402L508.042 283.181L497.888 281.918L497.919 281.664L498.233 279.138L498.279 278.768C500.628 278.033 502.452 275.987 502.776 273.386C503.217 269.84 500.7 266.605 497.152 266.164C493.605 265.723 490.371 268.24 489.929 271.788C489.557 274.781 491.293 277.554 493.978 278.609L493.631 281.388L483.478 280.124L483.824 277.345L488.883 277.974C487.569 276.155 486.914 273.852 487.212 271.449C487.841 266.402 492.443 262.817 497.49 263.447ZM483.169 282.602L482.822 285.38L507.388 288.437L507.735 285.657L483.169 282.602Z" fill="#07051B"/>
<path d="M464.268 542.726L471.542 539.826L473.365 539.101L473.68 541.039L474.809 547.97L471.696 548.477L471.278 545.909L469.52 548.958C470.099 549.351 470.639 549.797 471.132 550.29C473.118 552.277 474.347 555.021 474.347 558.051C474.347 561.08 473.118 563.827 471.132 565.813C469.146 567.799 466.401 569.029 463.37 569.029C460.344 569.029 457.601 567.799 455.611 565.81L455.607 565.813C453.621 563.827 452.392 561.082 452.392 558.051C452.392 555.02 453.621 552.275 455.607 550.289C457.594 548.302 460.339 547.073 463.37 547.073C464.521 547.073 465.632 547.251 466.675 547.58L468.49 544.437L465.432 545.656L464.268 542.726ZM468.894 552.527C467.48 551.115 465.527 550.239 463.368 550.239C461.211 550.239 459.256 551.113 457.844 552.527C456.43 553.939 455.556 555.894 455.556 558.051C455.556 560.209 456.432 562.163 457.844 563.577V563.582C459.254 564.992 461.208 565.865 463.368 565.865C465.525 565.865 467.48 564.991 468.894 563.577C470.308 562.163 471.182 560.209 471.182 558.051C471.18 555.892 470.306 553.939 468.894 552.527Z" fill="#07051B"/>
<path d="M248.469 491.602L257.318 488.074L259.535 487.189L259.919 489.548L261.292 497.979L257.502 498.597L256.993 495.472L254.854 499.181C255.559 499.659 256.216 500.202 256.816 500.802C259.231 503.219 260.728 506.557 260.728 510.245C260.728 513.933 259.233 517.273 256.816 519.688C254.4 522.105 251.059 523.602 247.373 523.602C243.692 523.602 240.352 522.105 237.933 519.686L237.929 519.69C235.514 517.274 234.017 513.935 234.017 510.247C234.017 506.56 235.512 503.219 237.929 500.803C240.347 498.388 243.686 496.893 247.373 496.893C248.774 496.893 250.124 497.109 251.395 497.51L253.602 493.684L249.883 495.169L248.469 491.602ZM254.095 503.524C252.376 501.805 249.997 500.74 247.373 500.74C244.748 500.74 242.371 501.803 240.65 503.524C238.931 505.243 237.867 507.619 237.867 510.245C237.867 512.871 238.931 515.248 240.65 516.967V516.974C242.366 518.69 244.743 519.752 247.373 519.752C249.997 519.752 252.376 518.686 254.095 516.967C255.814 515.248 256.878 512.871 256.878 510.245C256.878 507.619 255.814 505.243 254.095 503.524Z" fill="#07051B"/>
<path d="M446.048 639.281C449.374 640.511 452.215 642.738 454.205 645.597C456.139 648.378 457.277 651.759 457.277 655.404C457.277 660.151 455.353 664.449 452.243 667.558C449.132 670.668 444.836 672.592 440.089 672.592C438.063 672.592 436.108 672.235 434.287 671.582C432.404 670.908 430.677 669.915 429.166 668.67L425.494 665.642L430.199 666.323C430.57 666.377 430.946 666.42 431.322 666.446C431.675 666.472 432.053 666.485 432.449 666.485C436.722 666.485 440.591 664.753 443.393 661.952C446.193 659.152 447.925 655.283 447.925 651.011C447.925 649.211 447.622 647.49 447.065 645.897C446.486 644.242 445.629 642.709 444.551 641.359L441.565 637.618L446.048 639.281ZM452.015 647.12C451.232 645.995 450.294 644.987 449.234 644.125C449.355 644.419 449.468 644.719 449.575 645.023C450.234 646.904 450.593 648.92 450.593 651.011C450.593 656.021 448.56 660.558 445.277 663.84C442.546 666.573 438.946 668.437 434.927 668.987L435.184 669.082C436.704 669.628 438.356 669.925 440.089 669.925C444.098 669.925 447.729 668.299 450.356 665.672C452.984 663.044 454.608 659.413 454.608 655.404C454.608 652.323 453.65 649.466 452.015 647.12Z" fill="#07051B"/>
<path d="M262.691 616.481C266.045 616.116 269.231 617.145 271.671 619.105L271.676 619.11C274.116 621.071 275.809 623.961 276.174 627.314C276.54 630.668 275.511 633.854 273.55 636.293L273.547 636.299C271.907 638.34 269.617 639.857 266.95 640.514L267.683 647.228L274.338 646.5L274.628 649.152L267.973 649.88L268.452 654.282L265.8 654.573L265.319 650.171L258.662 650.897L258.372 648.245L265.029 647.519L264.303 640.869C261.334 640.942 258.548 639.933 256.362 638.176L256.357 638.171C253.917 636.211 252.224 633.321 251.859 629.968C251.493 626.616 252.522 623.428 254.481 620.988L254.486 620.981C256.448 618.54 259.338 616.848 262.691 616.481ZM270.007 621.181C268.1 619.652 265.607 618.847 262.979 619.135C260.353 619.421 258.091 620.743 256.56 622.65C255.031 624.557 254.226 627.05 254.512 629.678C254.8 632.304 256.122 634.566 258.028 636.097C259.934 637.626 262.429 638.431 265.055 638.145C267.681 637.859 269.943 636.537 271.476 634.63C273.005 632.723 273.811 630.228 273.523 627.602C273.235 624.974 271.912 622.714 270.007 621.181Z" fill="#07051B"/>
<path d="M90.2365 418.209C92.5468 415.752 95.6383 414.463 98.7659 414.364H98.7728C101.9 414.268 105.066 415.363 107.525 417.673C109.982 419.983 111.271 423.073 111.368 426.201V426.208C111.449 428.823 110.695 431.466 109.095 433.699L114.018 438.323L118.602 433.444L120.547 435.271L115.963 440.151L119.189 443.184L117.361 445.129L114.135 442.096L109.549 446.975L107.604 445.147L112.19 440.268L107.316 435.685C105.107 437.671 102.333 438.715 99.5314 438.803H99.5245C96.3969 438.899 93.233 437.804 90.7727 435.494C88.3157 433.184 87.0261 430.094 86.9278 426.966V426.958C86.8312 423.833 87.9278 420.668 90.2365 418.209ZM98.8521 417.025C96.409 417.102 93.9917 418.113 92.1813 420.037C90.3727 421.961 89.514 424.437 89.5882 426.88C89.6658 429.325 90.6761 431.74 92.6003 433.551C94.5262 435.359 97.0003 436.218 99.4435 436.144C101.888 436.066 104.306 435.056 106.114 433.132C107.923 431.206 108.782 428.732 108.707 426.287C108.63 423.844 107.619 421.425 105.695 419.616C103.771 417.809 101.297 416.951 98.8521 417.025Z" fill="#07051B"/>
<path fill-rule="evenodd" clip-rule="evenodd" d="M405.299 422.875C407.451 422.875 409.196 424.62 409.196 426.771C409.196 428.923 407.451 430.668 405.299 430.668C403.147 430.668 401.403 428.923 401.403 426.771C401.403 424.62 403.147 422.875 405.299 422.875ZM405.299 411.121C400.977 411.121 397.065 412.873 394.232 415.704C391.401 418.537 389.647 422.449 389.647 426.771C389.647 431.092 391.401 435.006 394.232 437.839C397.065 440.67 400.977 442.423 405.299 442.423C409.622 442.423 413.534 440.671 416.365 437.839C419.198 435.008 420.949 431.094 420.949 426.771C420.949 422.449 419.198 418.537 416.365 415.704C413.535 412.873 409.622 411.121 405.299 411.121ZM414.479 417.592C412.13 415.244 408.884 413.79 405.299 413.79C401.715 413.79 398.468 415.244 396.12 417.592C393.771 419.94 392.316 423.187 392.316 426.771C392.316 430.356 393.77 433.602 396.12 435.951C398.468 438.299 401.715 439.753 405.299 439.753C408.884 439.753 412.13 438.299 414.479 435.951C416.827 433.601 418.28 430.356 418.28 426.771C418.282 423.187 416.829 419.94 414.479 417.592Z" fill="#07051B"/>
<path d="M467.545 452.701C468.604 452.851 469.655 453.161 470.667 453.643C471.661 454.115 472.55 454.724 473.323 455.434C473.995 456.053 474.579 456.748 475.064 457.498C475.676 457.139 476.15 456.667 476.497 456.093C476.928 455.38 477.176 454.499 477.264 453.48L477.419 451.692L478.264 453.275C478.636 453.972 479.047 454.827 479.23 455.718C479.424 456.677 479.361 457.668 478.73 458.551C478.404 459.008 478.007 459.425 477.543 459.789C477.202 460.058 476.823 460.301 476.414 460.515C476.731 461.668 476.859 462.875 476.78 464.086C476.692 465.405 476.357 466.732 475.757 467.994C475.131 469.308 474.271 470.439 473.252 471.358C472.193 472.312 470.96 473.039 469.636 473.508L469.631 473.51C468.454 473.927 467.198 474.141 465.929 474.129C464.853 474.12 463.769 473.95 462.712 473.605L460.74 477.748L465.317 479.929L465.798 480.158L465.569 480.639L464.609 482.657L464.379 483.138L463.898 482.908L459.321 480.729L457.955 483.593L457.726 484.072L457.245 483.843L455.227 482.883L454.746 482.653L454.976 482.172L456.34 479.308L451.762 477.127L451.279 476.898L451.509 476.415L452.469 474.4L452.698 473.919L453.179 474.148L457.757 476.329L459.762 472.119C458.924 471.519 458.191 470.813 457.574 470.031C456.846 469.105 456.278 468.067 455.886 466.965L455.879 466.943C455.415 465.627 455.205 464.219 455.277 462.8C455.348 461.427 455.684 460.046 456.309 458.734C456.895 457.501 457.691 456.429 458.631 455.541C459.512 454.71 460.522 454.039 461.609 453.549C461.595 452.961 461.641 452.398 461.748 451.867C461.881 451.205 462.109 450.594 462.419 450.046C462.955 449.101 463.828 448.623 464.778 448.396C465.66 448.186 466.609 448.199 467.398 448.242L469.188 448.341L467.636 449.234C466.771 449.732 466.088 450.315 465.622 450.991C465.281 451.486 465.055 452.039 464.959 452.653C465.814 452.565 466.681 452.579 467.545 452.701ZM466.426 455.901C465.438 455.849 464.455 455.998 463.536 456.322C462.621 456.648 461.766 457.153 461.031 457.815C460.326 458.451 459.728 459.237 459.293 460.153C458.859 461.068 458.624 462.025 458.574 462.975C458.522 463.963 458.671 464.946 458.993 465.863C459.319 466.779 459.824 467.634 460.488 468.369C461.124 469.074 461.91 469.672 462.824 470.107C463.74 470.543 464.698 470.776 465.647 470.826C466.635 470.877 467.617 470.729 468.535 470.407C469.45 470.081 470.305 469.575 471.04 468.912C471.745 468.275 472.343 467.489 472.778 466.575C473.214 465.66 473.448 464.701 473.498 463.753C473.55 462.765 473.402 461.782 473.078 460.863C472.752 459.949 472.247 459.093 471.585 458.358C470.948 457.651 470.162 457.055 469.247 456.62C468.333 456.184 467.374 455.951 466.426 455.901Z" fill="#07051B"/>
<path d="M473.438 416.066L478.967 413.626L473.769 402.235L469.77 408.354L467.539 406.895L472.858 398.752L473.348 398.004L474.225 398.175L484.864 400.237L484.364 402.854L476.256 401.282L481.4 412.554L488.201 409.552L489.276 411.992L482.505 414.978L485.931 422.487L483.512 423.59L480.072 416.051L474.512 418.504L473.438 416.066Z" fill="#07051B"/>
<path d="M338.234 408.852C336.874 406.118 335.276 404.509 333.676 403.799C332.651 403.344 331.619 403.266 330.655 403.499C329.663 403.738 328.724 404.311 327.922 405.14C326.475 406.637 325.481 408.944 325.362 411.699C325.251 414.195 326.617 415.492 328 416.804C329.632 418.354 331.284 419.921 331.551 423.021C331.653 424.201 331.748 425.33 331.341 426.835C330.953 428.27 330.105 429.968 328.341 432.249L326.236 430.623C327.753 428.663 328.463 427.272 328.767 426.146C329.051 425.094 328.976 424.192 328.894 423.251C328.713 421.149 327.432 419.933 326.165 418.733C324.341 417.002 322.541 415.29 322.703 411.585C322.855 408.151 324.136 405.228 326.005 403.295C327.158 402.102 328.539 401.275 330.031 400.914C331.551 400.545 333.169 400.664 334.762 401.371C335.96 401.904 337.138 402.776 338.236 404.033V398.878H332.405V396.209H346.734V398.878H340.903V427.696H338.234V408.852Z" fill="#07051B"/>
<path d="M243.329 432.601L249.658 431.41L244.019 408.195L246.5 407.595L252.171 430.939L262.119 429.068C260.133 427.909 258.222 426.63 256.521 425.184C253.853 422.916 251.703 420.24 250.565 416.97C249.208 413.068 250.089 409.556 252.065 407.23C252.926 406.218 253.998 405.428 255.188 404.928C256.39 404.423 257.709 404.211 259.046 404.356C261.965 404.676 264.967 406.671 267.022 411.007L264.71 412.099C263.091 408.683 260.876 407.128 258.776 406.897C257.871 406.799 256.984 406.94 256.177 407.278C255.36 407.621 254.617 408.171 254.015 408.88C252.576 410.573 251.95 413.18 252.976 416.128C253.945 418.918 255.826 421.239 258.171 423.232C260.588 425.289 263.507 427.004 266.452 428.527L269.748 430.234L266.102 430.918L252.774 433.423L254.171 439.177L251.689 439.777L250.262 433.897L243.798 435.113L243.329 432.601Z" fill="#07051B"/>
<path d="M252.162 358.297L256.106 373.99C258.037 374.205 260.048 374.711 262.132 375.504L261.184 377.995C257.287 376.512 253.744 376.157 250.565 376.942C247.405 377.721 244.551 379.635 242.004 382.697L239.961 380.997C241.589 379.038 243.342 377.486 245.22 376.335L241.387 361.088C239.239 360.926 236.996 360.398 234.656 359.509L235.604 357.017C239.503 358.5 243.044 358.855 246.224 358.071C249.382 357.293 252.237 355.378 254.782 352.315L256.825 354.015C255.372 355.765 253.817 357.191 252.162 358.297ZM253.332 373.883L249.753 359.647C248.817 360.076 247.851 360.412 246.86 360.657C245.97 360.876 245.063 361.019 244.136 361.09L247.656 375.095C248.396 374.792 249.153 374.545 249.929 374.354C251.032 374.083 252.168 373.926 253.332 373.883Z" fill="#07051B"/>
<path d="M323.028 354.371H328.37C327.985 351.341 326.456 348.276 323.877 345.182L325.92 343.482C328.918 347.079 330.665 350.707 331.046 354.371H334.216C334.598 350.708 336.344 347.079 339.341 343.482L341.384 345.182C338.804 348.276 337.275 351.341 336.891 354.371H342.234V357.039H336.853C337.151 360.064 338.622 363.115 341.36 366.197L339.368 367.957C336.163 364.348 334.473 360.709 334.184 357.038H331.082C330.792 360.71 329.103 364.353 325.897 367.962L323.906 366.19C326.644 363.109 328.113 360.059 328.411 357.038H323.032V354.371H323.028Z" fill="#07051B"/>
<path d="M403.511 358.655C402.004 357.534 400.854 357.257 400.033 357.579C399.221 357.9 398.6 358.846 398.202 360.162C397.735 361.7 397.597 363.67 397.8 365.772C397.995 367.795 398.505 369.92 399.338 371.886C402.205 369.898 402.564 366.807 403.176 361.469C403.278 360.589 403.385 359.657 403.511 358.655ZM418.557 355.269C418.847 355.088 419.15 354.944 419.457 354.841C419.961 354.672 420.485 354.608 421.002 354.658C421.525 354.708 422.035 354.87 422.513 355.155C423.401 355.682 424.161 356.622 424.625 358.012L422.101 358.857C421.854 358.119 421.519 357.662 421.154 357.444C421.021 357.367 420.883 357.32 420.744 357.308C420.604 357.294 420.452 357.315 420.301 357.365C419.957 357.481 419.614 357.739 419.316 358.129C419.716 362.172 418.651 364.717 417.776 366.8C417.028 368.586 416.463 369.934 417.732 371.738L415.552 373.269C413.44 370.265 414.25 368.334 415.321 365.776C416.107 363.903 417.073 361.601 416.616 357.958C416.504 357.07 416.257 356.477 415.937 356.139C415.763 355.955 415.556 355.853 415.344 355.827C415.09 355.796 414.799 355.863 414.5 356.01C413.937 356.288 413.383 356.838 412.961 357.61L410.009 370.874L407.414 370.288L410.406 356.848C410.571 356.101 410.352 355.62 409.968 355.372C409.737 355.222 409.443 355.122 409.125 355.074C408.768 355.019 408.393 355.029 408.038 355.094C407.276 355.238 406.609 355.636 406.521 356.238C406.221 358.272 406.009 360.124 405.818 361.777C405.059 368.37 404.635 372.048 400.647 374.396C402.076 376.636 404.038 378.422 406.554 379.209L405.766 381.748C402.483 380.721 399.983 378.383 398.226 375.505C396.954 375.965 395.44 376.367 393.633 376.729L393.114 374.119C394.635 373.814 395.905 373.474 396.967 373.077C395.974 370.802 395.373 368.35 395.147 366.022C394.911 363.582 395.086 361.255 395.65 359.393C396.283 357.308 397.419 355.748 399.05 355.105C400.423 354.563 402.052 354.693 403.904 355.738C404.224 353.927 405.797 352.813 407.552 352.482C408.204 352.36 408.887 352.344 409.528 352.443C410.206 352.546 410.859 352.777 411.418 353.139C411.835 353.412 412.199 353.746 412.481 354.146C412.754 353.941 413.037 353.767 413.325 353.625C414.085 353.25 414.888 353.094 415.661 353.184C416.476 353.281 417.235 353.644 417.861 354.303C418.125 354.575 418.357 354.896 418.557 355.269Z" fill="#07051B"/>
<path d="M495.1 344.66C496.569 344.391 497.913 344.501 499.122 345.02C500.538 345.625 501.707 346.763 502.601 348.474L500.246 349.708C499.646 348.563 498.92 347.824 498.081 347.465C497.357 347.155 496.496 347.103 495.513 347.293C494.422 349.068 493.682 351.177 493.186 353.513C492.632 356.124 492.382 359.008 492.293 362.038L489.634 361.955C489.729 358.774 489.993 355.736 490.581 352.963C491.098 350.534 491.862 348.303 492.975 346.355C492.234 345.772 491.505 345.481 490.789 345.472C489.932 345.462 489.015 345.849 488.043 346.62L486.829 360.615L484.18 360.386L485.556 344.508L485.562 344.446C485.668 343.655 485.606 343.243 485.443 343.12C485.367 343.063 485.199 343.056 484.977 343.089C484.579 343.151 484.112 343.343 483.627 343.641V343.646C481.918 344.696 480.203 346.893 480.229 349.344L480.224 349.417C480.222 349.458 479.61 364.374 477.573 366.241C476.46 367.26 475.225 367.726 473.98 367.772C472.929 367.81 471.891 367.541 470.929 367.053C470.013 366.589 469.167 365.924 468.451 365.141C467.075 363.638 466.137 361.653 466.066 359.77L468.727 359.677C468.772 360.919 469.437 362.277 470.415 363.346C470.925 363.903 471.511 364.369 472.129 364.683C472.699 364.974 473.299 365.133 473.884 365.112C474.518 365.088 475.167 364.834 475.777 364.276C476.927 363.222 477.517 350.429 477.563 349.365H477.561C477.527 345.886 479.88 342.82 482.23 341.375L482.232 341.379C483.022 340.893 483.832 340.574 484.579 340.46C485.501 340.32 486.355 340.477 487.037 340.986C487.706 341.486 488.15 342.272 488.248 343.38C489.105 342.993 489.967 342.801 490.832 342.812C492.319 342.829 493.743 343.437 495.1 344.66Z" fill="#07051B"/>
<path d="M403.071 292.459C403.715 293.935 404.636 294.859 405.607 295.273C406.165 295.511 406.743 295.578 407.288 295.482C407.824 295.387 408.338 295.127 408.772 294.711C409.517 293.999 410.043 292.832 410.129 291.232C410.148 290.873 409.791 289.735 409.34 288.297C408.76 286.449 408.04 284.149 407.669 281.819C406.905 277.016 407.629 272.352 413.65 271.395C415.252 271.142 416.569 271.409 417.643 272.04C418.616 272.611 419.348 273.464 419.881 274.481C420.374 275.423 420.693 276.507 420.871 277.628C421.364 280.728 420.762 284.301 419.809 285.925L417.517 284.58C418.224 283.375 418.647 280.576 418.245 278.045C418.109 277.188 417.876 276.38 417.526 275.711C417.216 275.118 416.81 274.633 416.298 274.331C415.741 274.004 415.009 273.873 414.067 274.021C410.167 274.64 409.748 277.961 410.295 281.401C410.629 283.509 411.324 285.725 411.883 287.504C412.412 289.192 412.831 290.528 412.785 291.368C412.66 293.704 411.814 295.485 410.605 296.639C409.783 297.425 408.793 297.92 407.745 298.106C406.705 298.29 405.609 298.168 404.562 297.72C403.005 297.056 401.569 295.67 400.629 293.52L403.071 292.459Z" fill="#07051B"/>
<path d="M419.741 283.438C421.371 283.438 422.824 284.273 423.855 285.618C424.807 286.863 425.397 288.561 425.397 290.418C425.397 292.275 424.807 293.973 423.855 295.218C422.824 296.563 421.371 297.397 419.741 297.397C418.112 297.397 416.657 296.563 415.626 295.218C414.674 293.975 414.083 292.275 414.083 290.418C414.083 288.561 414.672 286.863 415.626 285.618C416.659 284.273 418.112 283.438 419.741 283.438ZM421.741 287.235C421.209 286.539 420.5 286.107 419.743 286.107C418.986 286.107 418.276 286.539 417.743 287.235C417.133 288.033 416.753 289.158 416.753 290.418C416.753 291.678 417.133 292.802 417.743 293.602C418.276 294.297 418.985 294.728 419.743 294.728C420.5 294.728 421.209 294.297 421.741 293.602C422.352 292.804 422.731 291.68 422.731 290.418C422.729 289.158 422.352 288.032 421.741 287.235Z" fill="#07051B"/>
<path d="M316.388 266.033L316.116 258.498L316.023 255.898L318.187 257.345L325.766 262.414L325.613 258.157L325.52 255.555L327.683 257.002L335.263 262.071L335.109 257.814L335.015 255.212L337.178 256.658L347.001 263.228L345.839 264.971L344.877 265.003L337.87 260.319L338.047 265.252L336.344 265.312L335.382 265.348L328.373 260.662L328.552 265.593L326.847 265.655L325.885 265.69L318.878 261.003L319.056 265.936L316.388 266.033Z" fill="#07051B"/>
<path d="M319.527 279.233L319.256 271.698L319.161 269.097L321.327 270.545L328.906 275.612L328.753 271.355L328.658 268.753L330.822 270.202L338.403 275.269L338.248 271.014L338.154 268.412L340.318 269.859L350.139 276.426L348.977 278.169L348.017 278.204L341.008 273.517L341.186 278.45L339.482 278.512L338.52 278.547L331.511 273.86L331.691 278.793L329.985 278.855L329.023 278.89L322.016 274.202L322.194 279.136L319.527 279.233Z" fill="#07051B"/>
<path d="M242.306 288.885C244.703 288.885 246.875 289.858 248.446 291.428C250.017 292.999 250.989 295.17 250.989 297.568C250.989 299.965 250.017 302.137 248.446 303.708C246.875 305.279 244.703 306.251 242.306 306.251C239.909 306.251 237.737 305.279 236.166 303.708C234.596 302.137 233.623 299.965 233.623 297.568C233.623 295.17 234.596 292.999 236.166 291.428C237.737 289.858 239.909 288.885 242.306 288.885ZM246.56 293.316C245.472 292.228 243.968 291.554 242.308 291.554C240.647 291.554 239.142 292.228 238.054 293.316C236.966 294.406 236.292 295.909 236.292 297.57C236.292 299.23 236.966 300.735 238.054 301.823C239.142 302.911 240.647 303.584 242.308 303.584C243.968 303.584 245.472 302.91 246.56 301.823C247.648 300.735 248.322 299.23 248.322 297.57C248.322 295.908 247.648 294.404 246.56 293.316Z" fill="#07051B"/>
<path d="M236.997 292.207C235.738 290.133 234.272 288.85 232.645 288.18C231.012 287.506 229.164 287.426 227.165 287.766L226.729 285.138C229.193 284.719 231.522 284.838 233.657 285.718C235.798 286.602 237.695 288.233 239.269 290.831L236.997 292.207Z" fill="#07051B"/>
<path d="M242.084 290.263C242.722 287.294 243.982 285.132 245.718 283.595C247.449 282.064 249.615 281.19 252.086 280.78L252.513 283.407C250.52 283.738 248.803 284.418 247.48 285.587C246.167 286.749 245.201 288.442 244.689 290.816L242.084 290.263Z" fill="#07051B"/>
<path d="M240.962 221.242L239.255 210.094C237.705 204.723 235.143 202.199 232.817 201.542C231.735 201.237 230.722 201.349 229.943 201.77C229.21 202.165 228.671 202.842 228.481 203.694C228.141 205.22 228.855 207.323 231.322 209.589L229.321 211.76C225.959 208.673 225.05 205.511 225.598 203.053C225.981 201.332 227.066 199.965 228.541 199.168C229.971 198.399 231.762 198.171 233.614 198.694C235.874 199.334 238.255 201.113 240.121 204.435C241.012 200.73 242.819 198.37 244.819 197.14C246.459 196.134 248.243 195.865 249.83 196.216C251.468 196.58 252.881 197.601 253.719 199.153C254.914 201.37 254.902 204.658 252.507 208.542L249.99 206.997C251.747 204.147 251.862 201.928 251.121 200.553C250.707 199.784 250.004 199.278 249.19 199.099C248.326 198.908 247.321 199.073 246.362 199.661C244.304 200.927 242.524 204.054 242.495 209.642L243.886 220.836L242.423 221.022L240.962 221.242Z" fill="#07051B"/>
<path d="M341.524 158.047L343.932 153.433L346.288 154.662L343.234 160.514C344.879 163.133 346.291 166.157 346.839 168.859L344.234 169.38C343.363 165.085 340.019 159.854 337.408 157.388C336.929 156.935 336.498 156.597 336.148 156.406C336.139 156.704 336.182 157.171 336.291 157.837C336.353 158.214 336.524 158.938 336.732 159.823C337.436 162.8 338.553 167.53 337.984 170.323L337.798 171.24C337.829 171.48 337.844 171.726 337.844 171.973C337.844 172.632 337.732 173.264 337.524 173.854L345.5 179.075L344.041 181.306L336.065 176.083C335.058 177.028 333.701 177.608 332.212 177.608C330.655 177.608 329.246 176.977 328.227 175.956C327.208 174.937 326.577 173.528 326.577 171.973C326.577 170.418 327.208 169.007 328.227 167.988C329.246 166.97 330.655 166.338 332.212 166.338C333.412 166.338 334.522 166.713 335.436 167.352C335.248 165.123 334.598 162.373 334.137 160.426C333.925 159.528 333.751 158.794 333.665 158.264C333.362 156.418 333.548 155.187 334.077 154.469C334.767 153.53 335.744 153.364 336.893 153.818C337.603 154.099 338.406 154.668 339.232 155.449C339.962 156.142 340.744 157.03 341.524 158.047ZM334.565 173.775L335.082 171.237C334.948 170.713 334.675 170.247 334.306 169.876C333.77 169.34 333.029 169.007 332.21 169.007C331.391 169.007 330.649 169.34 330.113 169.876C329.577 170.413 329.244 171.156 329.244 171.973C329.244 172.792 329.577 173.533 330.113 174.07C330.649 174.606 331.391 174.939 332.21 174.939C333.029 174.939 333.77 174.606 334.306 174.07C334.398 173.978 334.484 173.88 334.565 173.775Z" fill="#07051B"/>
<path d="M418.583 186.339C416.336 186.502 414.243 186.961 412.317 187.735C409.071 189.04 406.269 191.261 403.967 194.499L401.8 192.958C404.409 189.285 407.607 186.761 411.328 185.264C415.31 183.663 424.709 182.177 428.147 185.614C429.29 186.758 429.999 188.34 429.999 190.085C429.999 191.827 429.292 193.406 428.147 194.551V194.556C427.004 195.699 425.421 196.408 423.676 196.408C421.935 196.408 420.355 195.701 419.211 194.556L419.205 194.551C418.062 193.408 417.354 191.828 417.354 190.085C417.354 188.683 417.809 187.387 418.583 186.339ZM426.259 187.502C425.599 186.842 424.683 186.433 423.674 186.433C422.664 186.433 421.75 186.842 421.088 187.501L421.09 187.502C420.43 188.163 420.019 189.077 420.019 190.087C420.019 191.097 420.426 192.009 421.085 192.671L421.09 192.677C421.75 193.334 422.664 193.74 423.673 193.74C424.681 193.74 425.595 193.332 426.257 192.671L426.261 192.673C426.919 192.013 427.328 191.097 427.328 190.087C427.328 189.077 426.919 188.163 426.259 187.502Z" fill="#07051B"/>
<path d="M414.369 203.599C416.618 203.435 418.709 202.977 420.637 202.203C423.881 200.897 426.683 198.677 428.987 195.437L431.154 196.978C428.545 200.651 425.349 203.175 421.626 204.672C417.643 206.273 408.245 207.76 404.807 204.322C403.664 203.178 402.955 201.596 402.955 199.851C402.955 198.109 403.662 196.53 404.807 195.385V195.38C405.95 194.237 407.533 193.528 409.278 193.528C411.019 193.528 412.599 194.235 413.743 195.38L413.749 195.385C414.892 196.53 415.6 198.109 415.6 199.851C415.6 201.254 415.143 202.551 414.369 203.599ZM406.693 202.434C407.354 203.096 408.267 203.504 409.276 203.504C410.286 203.504 411.2 203.096 411.862 202.437L411.859 202.434C412.521 201.773 412.93 200.859 412.93 199.851C412.93 198.842 412.523 197.927 411.866 197.268L411.861 197.263C411.2 196.606 410.286 196.199 409.278 196.199C408.269 196.199 407.355 196.608 406.695 197.27L406.693 197.268C406.035 197.928 405.626 198.842 405.626 199.853C405.624 200.859 406.033 201.773 406.693 202.434Z" fill="#07051B"/>
<path fill-rule="evenodd" clip-rule="evenodd" d="M138.483 90.4736C132.898 120.869 128 132.686 104.772 135.712C127.998 138.738 132.898 150.556 138.483 180.951C144.067 150.556 148.966 138.738 172.192 135.712C148.966 132.686 144.067 120.869 138.483 90.4736Z" fill="white"/>
<path fill-rule="evenodd" clip-rule="evenodd" d="M601.612 317.69C596.028 348.086 591.13 359.903 567.903 362.929C591.13 365.955 596.03 377.772 601.612 408.168C607.197 377.772 612.095 365.955 635.323 362.929C612.097 359.903 607.197 348.086 601.612 317.69Z" fill="white"/>
<path fill-rule="evenodd" clip-rule="evenodd" d="M129.667 671.184C124.082 701.579 119.184 713.396 95.9576 716.422C119.184 719.448 124.084 731.265 129.667 761.661C135.251 731.265 140.15 719.448 163.378 716.422C140.151 713.396 135.251 701.581 129.667 671.184Z" fill="white"/>
<path fill-rule="evenodd" clip-rule="evenodd" d="M573.871 671.184C568.286 701.579 563.388 713.396 540.16 716.422C563.386 719.448 568.286 731.265 573.871 761.661C579.456 731.265 584.354 719.448 607.582 716.422C584.356 713.396 579.456 701.581 573.871 671.184Z" fill="white"/>
<path fill-rule="evenodd" clip-rule="evenodd" d="M574.628 540.78C570.666 562.344 567.19 570.727 550.712 572.874C567.19 575.02 570.666 583.403 574.628 604.967C578.59 583.403 582.066 575.02 598.544 572.874C582.066 570.727 578.588 562.344 574.628 540.78Z" fill="white"/>
<path fill-rule="evenodd" clip-rule="evenodd" d="M23.9158 484.001C19.9537 505.566 16.4778 513.948 0 516.095C16.4778 518.242 19.9537 526.624 23.9158 548.189C27.878 526.624 31.3539 518.242 47.8317 516.095C31.3522 513.948 27.8762 505.566 23.9158 484.001Z" fill="white"/>
<path fill-rule="evenodd" clip-rule="evenodd" d="M308.197 0C304.235 21.5641 300.759 29.947 284.281 32.0936C300.759 34.2401 304.235 42.623 308.197 64.1871C312.159 42.623 315.635 34.2401 332.113 32.0936C315.633 29.947 312.157 21.5641 308.197 0Z" fill="white"/>
<path fill-rule="evenodd" clip-rule="evenodd" d="M163.376 320.222C159.414 341.786 155.938 350.169 139.461 352.315C155.938 354.462 159.414 362.845 163.376 384.409C167.339 362.845 170.814 354.462 187.292 352.315C170.814 350.169 167.339 341.786 163.376 320.222Z" fill="white"/>
<path fill-rule="evenodd" clip-rule="evenodd" d="M575.109 224.75C572.69 237.915 570.567 243.034 560.507 244.345C570.567 245.655 572.69 250.774 575.109 263.94C577.528 250.774 579.65 245.655 589.711 244.345C579.65 243.034 577.528 237.915 575.109 224.75Z" fill="white"/>
<path fill-rule="evenodd" clip-rule="evenodd" d="M80.4516 243.779C78.0326 256.945 75.9101 262.064 65.8496 263.374C75.9101 264.685 78.0326 269.804 80.4516 282.969C82.8706 269.804 84.993 264.685 95.0535 263.374C84.993 262.064 82.8706 256.945 80.4516 243.779Z" fill="white"/>
<path fill-rule="evenodd" clip-rule="evenodd" d="M635.325 451.241C632.906 464.406 630.783 469.525 620.723 470.836C630.783 472.146 632.906 477.265 635.325 490.431C637.744 477.265 639.866 472.146 649.927 470.836C639.866 469.525 637.744 464.406 635.325 451.241Z" fill="white"/>
<path fill-rule="evenodd" clip-rule="evenodd" d="M484.334 61.9766C481.915 75.1423 479.792 80.2613 469.732 81.5717C479.792 82.882 481.915 88.0011 484.334 101.167C486.753 88.0011 488.875 82.882 498.936 81.5717C488.875 80.2613 486.753 75.1423 484.334 61.9766Z" fill="white"/>
<path fill-rule="evenodd" clip-rule="evenodd" d="M36.8325 609.043C34.4135 622.209 32.291 627.328 22.2305 628.638C32.291 629.948 34.4135 635.067 36.8325 648.233C39.2515 635.067 41.3739 629.948 51.4344 628.638C41.3739 627.328 39.2515 622.209 36.8325 609.043Z" fill="white"/>
<path d="M254.007 713.486L254.461 703.829C253.59 707.017 253.5 710.283 254.007 713.486Z" fill="white"/>
<path d="M520.523 235.424C516.73 226.964 508.277 220.179 499.499 218.36C494.254 217.274 488.893 217.96 484.343 221.119C476.112 226.836 473.795 237.786 472.128 247.669C463.974 296.009 455.819 344.348 447.665 392.688C446.948 396.939 443.108 402.523 439.808 399.752C441.486 366.241 443.233 332.732 444.736 299.213C445.343 285.689 445.088 271.823 444.841 258.414C444.636 247.221 444.441 236.647 444.722 226.508C445.002 216.439 445.857 206.817 446.608 198.327C447.445 188.882 448.169 180.725 447.989 173.915C447.396 151.382 433.198 140.452 420.258 139.835C400.858 138.909 389.723 157.183 387.597 174.556L384.959 241.047C384.463 253.607 382.501 266.349 380.602 278.671C379.132 288.211 377.613 298.075 376.759 307.889C376.318 312.949 376.494 318.022 376.664 322.929C376.83 327.741 376.989 332.288 376.618 336.85C375.928 345.338 374.566 353.96 373.249 362.298C372.614 366.309 371.982 370.319 371.414 374.34C370.518 374.636 368.883 374.583 368.533 374.057C365.866 346.021 366.347 317.037 366.812 289.009C366.88 284.87 366.95 280.728 367.009 276.585C367.333 254.055 367.078 231.174 366.833 209.046L366.711 197.798C366.573 184.444 367.766 170.823 368.921 157.649C369.504 151.004 370.106 144.131 370.54 137.145C370.54 117.986 355.085 106.721 339.817 105.495C326.029 104.393 310.777 111.731 307.725 130.624L305.041 178.879C304.448 196.617 302.282 214.298 300.189 231.396C297.977 249.466 295.689 268.149 295.229 287.037C295.063 293.873 295.543 304.677 296.098 317.187C296.398 323.96 296.718 331.167 296.962 338.353L295.522 375.412C295.244 375.574 294.591 375.823 293.636 375.835C292.692 375.847 292.034 375.617 291.77 375.459L283.799 318.153C281.948 304.835 280.42 290.984 278.942 277.587C277.406 263.654 275.816 249.245 273.82 234.912C271.659 219.412 270.189 203.524 268.768 188.156C268.04 180.292 267.313 172.428 266.502 164.665C265.446 150.775 253.804 139.054 238.328 139.381C232.874 139.497 227.573 141.421 223.159 144.626C213.684 151.504 208.262 162.583 208.65 174.289C209.157 189.653 209.193 207.056 209.233 225.481C209.269 243.517 209.309 262.168 209.803 280.035C210.078 289.942 211.093 299.42 212.072 308.584C213.117 318.349 214.105 327.572 214.002 335.889L213.09 408.925L218.469 468.395C218.86 479.772 214.838 493.435 208.222 495.638C203.396 497.233 196.701 492.336 189.369 481.81L182.45 471.874C175.384 461.727 162.23 442.836 153.611 434.249C144.047 424.72 133.508 416.097 122.29 408.621C107.483 398.751 88.4 397.304 72.2911 404.787C69.3325 406.161 66.6755 408.209 64.9065 410.951C61.1082 416.835 61.3737 424.108 65.1341 429.546L92.9224 459.77C101.036 471.538 107.621 484.324 112.492 497.774C112.666 498.257 130.411 546.468 145.961 562.02C174.02 590.081 188.212 630.806 188.351 631.213L188.674 631.888C196.358 644.059 207.369 654.618 218.017 664.83C233.576 679.749 248.271 693.843 250.064 710.553C251.552 724.414 250.89 748.623 250.307 769.982C250.037 779.89 249.778 789.327 249.773 796.692C249.771 798.527 251.273 799.996 253.109 799.973C254.351 798.811 255.099 798.11 256.34 796.948C257.025 789.02 260.878 781.589 267.246 776.716C275.853 770.128 286.832 768.113 297.484 767.711C307.351 767.34 317.222 768.321 327.098 768.275C344.935 768.189 362.506 764.763 380.22 763.133C397.903 761.506 415.487 762.352 432.693 766.944C444.929 770.209 453.853 780.73 454.821 793.358C454.862 793.898 454.903 794.437 454.945 794.977C455.072 796.625 456.445 797.898 458.098 797.908C458.121 797.908 458.141 797.908 458.162 797.908C460.024 797.92 461.495 796.339 461.35 794.482C459.093 765.744 457.464 736.021 468.107 709.32C473.964 694.624 483.307 681.543 489.473 666.973C498.601 645.404 500.395 621.542 501.761 598.16C507.975 491.762 507.689 384.773 522.347 279.206C524.373 264.53 526.58 248.94 520.523 235.424ZM394.009 175.208C396.592 154.487 408.861 145.742 419.951 146.269C430.35 146.766 441.062 155.559 441.55 174.084C441.719 180.523 441.012 188.51 440.191 197.756C439.627 204.108 438.841 217.419 438.465 224.167C438.263 227.798 436.662 231.276 433.817 233.541C432.682 234.445 431.439 235.217 430.139 235.829C425.277 238.122 419.756 238.562 414.38 238.571C409.43 238.579 404.363 238.226 399.813 236.274C399.78 236.26 399.749 236.247 399.716 236.233C394.82 234.098 391.884 229.005 392.094 223.667L394.009 175.208ZM384.306 298.035C385.089 291.859 386.039 285.69 386.97 279.652C388.496 269.749 390.049 259.578 390.889 249.352C390.939 248.733 391.287 248.178 391.825 247.867C395.492 245.745 399.539 244.35 403.737 243.776C413.925 242.381 424.434 243.491 434.134 246.897C436.594 247.761 438.253 250.069 438.296 252.676C438.327 254.609 438.362 256.559 438.398 258.533C438.643 271.842 438.896 285.604 438.298 298.925C438.21 300.899 438.12 302.865 438.031 304.818C437.593 314.384 430.634 322.639 421.162 324.039C420.52 324.134 419.877 324.205 419.234 324.253C411.01 324.862 402.891 322.193 395.34 318.875C395.044 318.744 394.735 318.593 394.42 318.424C387.116 314.517 383.264 306.253 384.306 298.035ZM310.42 196.836C310.905 190.97 311.277 185.073 311.476 179.163L314.112 131.488C316.732 115.764 329.291 111.102 339.3 111.917C351.621 112.907 364.095 121.888 364.102 136.942C363.68 143.645 363.081 150.478 362.502 157.083C361.437 169.242 360.342 181.779 360.266 194.261C360.25 196.767 359.523 199.22 358.088 201.274C354.886 205.856 349.95 209.376 344.562 211.05C335.771 213.782 326.129 212.295 317.538 208.988C317.35 208.915 317.143 208.822 316.92 208.712C312.519 206.527 310.015 201.731 310.42 196.836ZM301.668 287.192C302.122 268.618 304.389 250.093 306.582 232.178C306.588 232.14 306.591 232.102 306.596 232.064C307.598 223.877 314.377 217.526 322.622 217.293C322.791 217.288 322.96 217.284 323.127 217.281C329.314 217.148 335.505 217.332 341.66 217.974C343.379 218.153 345.124 218.379 346.864 218.677C354.826 220.048 360.585 227.043 360.643 235.122C360.743 248.885 360.762 262.756 360.566 276.49C360.507 280.628 360.438 284.764 360.369 288.901C360.357 289.666 360.343 290.434 360.331 291.202C360.228 297.546 356.468 303.435 350.54 305.692C350.498 305.708 350.459 305.723 350.417 305.739C346.393 307.237 342.004 307.349 337.709 307.38C330.378 307.432 322.929 307.275 315.914 305.142C313.92 304.535 311.958 303.748 310.098 302.779C304.779 300.013 301.574 294.389 301.648 288.394C301.651 287.98 301.658 287.578 301.668 287.192ZM215.669 225.467C215.629 206.991 215.595 189.539 215.083 174.073C214.766 164.473 219.231 155.389 227.024 149.775C233.236 145.307 241.378 144.583 248.278 147.895C254.988 151.116 259.508 157.728 260.08 165.242C260.895 173.07 261.62 180.91 262.346 188.749C263.43 200.479 264.561 212.505 265.996 224.469C266.806 231.226 263.235 237.9 256.937 240.479C256.895 240.497 256.854 240.512 256.814 240.529C250.419 243.105 243.309 243.133 236.424 242.766C233.821 242.626 231.131 242.388 228.5 241.935C221.107 240.66 215.684 234.267 215.669 226.764C215.671 226.331 215.671 225.898 215.669 225.467ZM218.472 307.896C217.505 298.856 216.505 289.508 216.238 279.856C216.079 274.149 215.976 268.35 215.9 262.518C215.845 258.29 217.966 254.326 221.505 252.012L222.805 251.162C227.517 248.083 233.109 246.792 238.73 247.093C246.44 247.509 256.099 244.8 263.408 249.038C264.428 249.629 265.358 250.335 266.22 251.121C268.599 253.293 270.049 256.311 270.421 259.511C271.156 265.83 271.853 272.107 272.534 278.29C273.628 288.223 274.756 298.401 276.023 308.448C276.947 315.786 273.196 322.994 266.568 326.277C263.159 327.965 259.437 329.205 255.809 330.201C248.83 332.12 241.569 333.61 234.385 332.726C234.333 332.719 234.281 332.712 234.23 332.707C226.264 331.681 220.16 325.039 219.409 317.043C219.126 314.055 218.805 311.006 218.472 307.896ZM110.597 477.333C102.976 461.7 92.3604 447.534 79.4964 435.832C76.517 433.122 73.3687 430.486 71.2515 427.06C69.1342 423.634 68.2014 419.172 69.9859 415.561C71.3428 412.815 74.0343 410.973 76.8015 409.658C85.8086 405.371 96.4828 405.527 106.012 408.475C115.54 411.423 124.066 416.965 131.89 423.151C140.232 429.748 147.934 437.153 154.853 445.229C161.256 452.705 162.894 461.127 160.989 468.941C157.83 481.893 144.773 493.271 131.261 493.7C120.099 494.057 114.943 486.248 110.597 477.333ZM501.985 430.723C501.923 449.641 501.492 468.555 500.821 487.46C499.501 524.695 497.237 561.889 494.975 599.076C493.637 621.069 492.195 643.528 483.804 663.901C477.736 678.632 468.226 691.753 462.195 706.5C460.405 710.874 458.948 715.333 457.765 719.857C456.928 723.062 455.429 726.074 453.386 728.683C440.629 744.962 418.167 751.231 398.734 754.93C364.34 761.476 329.327 755.7 295.944 746.609C285.242 743.695 274.325 740.267 265.782 733.195C265.747 733.166 265.713 733.138 265.678 733.109C260.366 728.676 257.349 722.079 256.907 715.174C256.787 713.281 256.64 711.503 256.463 709.862C254.418 690.815 238.9 675.932 222.471 660.177C212.195 650.323 201.572 640.135 194.312 628.754C192.741 624.292 178.536 585.486 150.509 557.461C144.446 551.396 137.29 538.447 131.102 525.382C128.907 520.745 129.042 515.35 131.373 510.783C132.811 507.964 134.583 505.299 136.561 502.843C141.739 496.416 148.275 491.24 154.751 486.123C156.827 484.483 158.963 482.821 161.17 481.276C168.596 476.083 178.968 478.184 184.16 485.612C193.5 498.976 202.279 504.397 210.252 501.749C220.404 498.367 225.376 481.924 224.892 467.991L219.531 408.671C219.531 408.671 220.135 360.255 220.136 360.216C220.512 330.143 277.878 322.529 282.353 354.533L285.403 376.454C285.825 379.997 289.368 382.421 293.877 382.273C298.387 382.159 301.703 379.626 301.944 376.026L303.408 338.37L303.403 338.253C303.3 335.16 303.181 332.062 303.056 328.994C302.793 322.531 306.52 316.551 312.658 314.344C316.593 312.93 320.867 312.884 325.048 312.855C336.998 312.77 356.385 312.589 359.916 327.174C363.412 341.608 360.692 359.695 362.116 374.667C362.471 378.412 365.48 380.892 369.776 380.983C373.804 381.021 378.356 378.895 377.645 374.521C377.273 372.226 377.635 369.909 378.471 367.74C382.078 358.378 377.897 343.488 383.182 333.61C389.454 321.886 416.979 328.072 428 329.669C438.667 331.213 436.812 341.915 435.905 349.481C434.379 362.228 434.286 375.366 433.436 388.187C433.051 393.973 432.793 400.271 436.855 404.773C439.217 407.392 442.976 408.535 446.202 407.108C449.843 405.497 449.984 402.021 451.017 399.014C456.095 384.242 475.261 385.656 487.347 389.19C507.62 395.119 502.038 414.285 501.985 430.723ZM509.202 352.136C508.435 359.669 507.69 366.793 506.97 373.507C506.625 376.721 505.044 379.697 502.494 381.681C498.857 384.509 494.154 386.161 489.514 386.466C481.771 386.976 474.167 384.412 466.99 381.461C465.122 380.693 463.241 379.881 461.669 378.616C461.647 378.597 461.622 378.578 461.6 378.559C458.212 375.793 456.919 371.183 457.864 366.912C458.247 365.183 458.595 363.61 458.595 363.61C461.841 349.122 465.8 331.394 468.841 313.963C469.321 311.213 471.523 309.094 474.292 308.748C477.483 308.348 480.712 308.37 483.899 308.813L497.882 310.761C500.713 311.156 503.649 311.587 506.044 313.148C506.844 313.668 507.556 314.298 508.228 314.975C510.211 316.972 511.233 319.715 511.104 322.524C510.778 329.556 510.059 343.719 509.202 352.136ZM512.87 291.397C512.868 291.427 512.865 291.454 512.861 291.484C512.249 298.132 507.704 303.78 501.285 305.615C495.542 307.256 489.34 307.306 483.631 305.522C481.874 304.973 480.155 304.26 478.612 303.258C477.18 302.327 475.945 301.182 474.857 299.896C472.228 296.785 470.988 292.728 471.235 288.665C471.486 284.52 471.842 280.49 472.54 277.089L480.611 237.721C482.666 227.7 491.464 223.979 498.802 224.783C507.973 225.777 518.571 234.148 518.399 254.447C517.878 256.931 514.544 273.292 512.87 291.397Z" fill="white"/>
</svg>
