<svg width="740" height="808" viewBox="0 0 740 808" fill="none" xmlns="http://www.w3.org/2000/svg">
<path fill-rule="evenodd" clip-rule="evenodd" d="M370 40.8608L371.872 357.462L395.826 41.7626L375.609 357.722L421.525 44.4643L379.317 358.245L446.974 48.9523L382.981 359.022L472.048 55.2041L386.58 360.055L496.624 63.1887L390.1 361.336L520.583 72.8699L393.521 362.858L543.809 84.1977L396.828 364.617L566.189 97.1168L400.004 366.602L587.613 111.567L403.035 368.803L607.976 127.478L405.904 371.212L627.179 144.769L408.597 373.812L645.13 163.357L411.104 376.595L661.74 183.152L413.409 379.547L676.93 204.06L415.504 382.652L690.624 225.974L417.377 385.895L702.756 248.79L419.018 389.261L713.267 272.399L420.421 392.735L722.105 296.68L421.578 396.295L729.227 321.522L422.485 399.93L734.6 346.798L423.135 403.618L738.197 372.386L423.527 407.344L740 398.166L423.658 411.085L740 424.008L423.527 414.828L738.197 449.786L423.135 418.554L734.6 475.376L422.485 422.242L729.227 500.652L421.578 425.877L722.105 525.492L420.421 429.437L713.267 549.775L419.018 432.911L702.756 573.382L417.377 436.277L690.624 596.198L415.504 439.52L676.93 618.114L413.409 442.625L661.74 639.019L411.104 445.577L645.13 658.814L408.597 448.36L627.179 677.403L405.904 450.961L607.976 694.694L403.035 453.368L587.613 710.605L400.004 455.57L566.189 725.055L396.828 457.555L543.809 737.976L393.521 459.313L520.583 749.304L390.1 460.836L496.624 758.983L386.581 462.117L472.048 766.969L382.981 463.149L446.974 773.221L379.317 463.927L421.525 777.707L375.609 464.449L395.826 780.409L371.872 464.712L370 781.311L368.128 464.712L344.174 780.409L364.391 464.449L318.475 777.707L360.683 463.927L293.027 773.219L357.019 463.149L267.952 766.969L353.419 462.117L243.376 758.983L349.9 460.836L219.415 749.304L346.479 459.313L196.189 737.976L343.172 457.555L173.811 725.055L339.996 455.57L152.387 710.605L336.965 453.368L132.024 694.694L334.096 450.961L112.821 677.403L331.401 448.36L94.8686 658.814L328.896 445.577L78.2597 639.019L326.591 442.625L63.0699 618.112L324.496 439.52L49.3748 596.198L322.624 436.277L37.2436 573.382L320.98 432.911L26.7331 549.775L319.579 429.439L17.8951 525.492L318.422 425.877L10.7726 500.652L317.515 422.242L5.40008 475.376L316.865 418.554L1.80348 449.786L316.473 414.828L0 424.008L316.342 411.087L0 398.166L316.473 407.344L1.80348 372.386L316.865 403.618L5.40008 346.798L317.515 399.93L10.7726 321.522L318.422 396.297L17.8951 296.68L319.579 392.735L26.7331 272.399L320.98 389.262L37.2436 248.79L322.624 385.895L49.3748 225.974L324.496 382.652L63.0699 204.058L326.589 379.548L78.2597 183.152L328.896 376.597L94.8686 163.357L331.401 373.812L112.821 144.769L334.096 371.212L132.024 127.478L336.965 368.803L152.387 111.567L339.994 366.602L173.811 97.1168L343.17 364.617L196.189 84.1977L346.477 362.86L219.415 72.8699L349.9 361.336L243.376 63.1887L353.419 360.055L267.952 55.2041L357.019 359.022L293.027 48.9523L360.683 358.245L318.475 44.4643L364.39 357.724L344.174 41.7626L368.126 357.462L370 40.8608Z" fill="white"/>
<path d="M565.559 242.638C561.766 234.178 553.313 227.393 544.535 225.574C539.29 224.488 533.93 225.174 529.379 228.333C521.148 234.05 518.831 245 517.164 254.883C509.01 303.223 500.855 351.562 492.701 399.902C491.984 404.152 488.144 409.737 484.844 406.966C486.522 373.455 488.269 339.946 489.772 306.427C490.379 292.902 490.124 279.037 489.877 265.628C489.672 254.435 489.477 243.86 489.758 233.722C490.038 223.653 490.893 214.031 491.645 205.541C492.481 196.096 493.205 187.939 493.026 181.129C492.432 158.595 478.234 147.666 465.294 147.049C445.894 146.123 434.759 164.397 432.633 181.77L429.995 248.26C429.499 260.821 427.537 273.563 425.638 285.885C424.168 295.425 422.649 305.289 421.795 315.103C421.354 320.163 421.53 325.236 421.7 330.143C421.866 334.955 422.025 339.501 421.654 344.064C420.964 352.552 419.602 361.174 418.285 369.512C417.65 373.523 417.018 377.533 416.45 381.554C415.554 381.85 413.919 381.797 413.569 381.271C410.902 353.234 411.383 324.251 411.849 296.223C411.916 292.084 411.986 287.942 412.045 283.799C412.369 261.269 412.114 238.388 411.869 216.26L411.747 205.012C411.609 191.658 412.802 178.037 413.957 164.863C414.54 158.218 415.142 151.345 415.576 144.359C415.576 125.2 400.121 113.934 384.853 112.709C371.065 111.607 355.813 118.945 352.761 137.838L350.077 186.092C349.484 203.831 347.318 221.512 345.225 238.61C343.013 256.68 340.725 275.363 340.265 294.251C340.099 301.087 340.579 311.891 341.134 324.401C341.434 331.174 341.754 338.381 341.998 345.567L340.558 382.626C340.28 382.788 339.627 383.037 338.672 383.049C337.728 383.061 337.07 382.831 336.806 382.673L328.835 325.367C326.984 312.049 325.456 298.197 323.978 284.801C322.442 270.868 320.852 256.459 318.856 242.126C316.695 226.626 315.225 210.738 313.804 195.37C313.076 187.506 312.349 179.642 311.538 171.878C310.482 157.989 298.84 146.266 283.364 146.595C277.91 146.711 272.609 148.635 268.195 151.84C258.72 158.72 253.298 169.797 253.686 181.503C254.193 196.867 254.229 214.27 254.269 232.695C254.305 250.731 254.345 269.381 254.839 287.249C255.114 297.156 256.129 306.634 257.108 315.798C258.153 325.563 259.141 334.786 259.038 343.103L258.126 416.139L263.505 475.609C263.896 486.986 259.874 500.649 253.258 502.852C248.432 504.447 241.737 499.55 234.405 489.024L227.486 479.088C220.42 468.941 207.266 450.05 198.647 441.463C189.083 431.934 178.543 423.311 167.326 415.835C152.517 405.964 133.434 404.518 117.324 412.001C114.367 413.375 111.711 415.423 109.942 418.163C106.144 424.047 106.408 431.322 110.168 436.76L137.957 466.984C146.071 478.752 152.655 491.538 157.526 504.988C157.7 505.471 175.445 553.682 190.995 569.234C219.054 597.295 233.246 638.019 233.386 638.426L233.708 639.102C241.393 651.273 252.403 661.832 263.052 672.044C278.61 686.963 293.305 701.057 295.099 717.767C296.587 731.628 295.924 755.837 295.342 777.196C295.028 788.665 294.733 799.501 294.823 807.227C294.823 807.227 504.507 805.129 506.657 805.142C504.277 775.342 502.07 744.304 513.14 716.533C518.997 701.836 528.34 688.755 534.505 674.185C543.633 652.616 545.428 628.754 546.794 605.372C553.007 498.974 552.721 391.985 567.38 286.418C569.409 271.744 571.616 256.154 565.559 242.638Z" fill="#F7F7F7"/>
<path fill-rule="evenodd" clip-rule="evenodd" d="M423.674 510.757C441.038 517.993 459.285 522.911 477.462 523.385C458.512 520.124 442.407 515.038 427.013 508.195C423.45 506.61 420.925 503.333 420.272 499.488C419.739 496.343 419.127 493.555 418.436 491.217L413.508 477.288L416.403 491.722C416.884 494.219 417.287 497.545 417.622 501.486C417.71 502.522 416.627 503.276 415.699 502.803C404.941 497.338 394.277 490.998 382.947 483.786C359.221 468.679 316.124 463.246 288.089 462.337C288.287 462.374 288.494 462.408 288.693 462.446C344.719 487.886 377.604 540.592 391.592 599.15C394.815 612.633 395.963 623.469 397.398 637.112C398.975 567.332 358.983 484.405 288.827 462.47C318.103 467.846 354.999 471.143 380.109 487.402C390.053 493.84 400.767 500.057 411.96 505.472C415.799 507.329 418.268 511.167 418.434 515.43C419.765 549.833 418.034 604.846 414.751 622.641C422.179 602.181 425.003 546.628 421.855 512.076C421.767 511.081 422.753 510.373 423.674 510.757Z" fill="#07051B"/>
<path fill-rule="evenodd" clip-rule="evenodd" d="M503.189 503.347C488.072 500.912 475.851 498.828 461.826 491.16C431.566 474.612 440.919 472.951 403.622 461.451C377.594 453.425 383.417 453.594 364.503 445.725C392.115 465.908 405.658 461.777 431.602 477.082C467.052 497.993 465.533 501.216 504.998 504.524L506.95 504.698C504.815 503.629 505.165 503.666 503.189 503.347Z" fill="#07051B"/>
<path fill-rule="evenodd" clip-rule="evenodd" d="M375.717 647.973C376.436 604.378 364.156 575.494 335.849 542.904C362.365 586.869 366.894 597.155 375.717 647.973Z" fill="#07051B"/>
<path fill-rule="evenodd" clip-rule="evenodd" d="M459.604 542.904C452.944 577.557 436.235 623.181 413.091 650.051C441.719 627.188 459.08 578.801 459.604 542.904Z" fill="#07051B"/>
<path fill-rule="evenodd" clip-rule="evenodd" d="M217.173 563.917C213.199 554.263 227.575 554.596 235.899 536.223C239.517 554.658 224.525 550.929 217.173 563.917Z" fill="#07051B"/>
<path fill-rule="evenodd" clip-rule="evenodd" d="M542.49 263.447C547.538 264.074 551.121 268.676 550.493 273.724C550.193 276.128 548.992 278.2 547.274 279.642L553.388 280.402L553.042 283.181L542.888 281.918L542.919 281.664L543.233 279.138L543.279 278.768C545.628 278.033 547.452 275.987 547.776 273.386C548.217 269.84 545.7 266.605 542.152 266.164C538.605 265.723 535.371 268.24 534.929 271.788C534.557 274.781 536.293 277.554 538.978 278.609L538.631 281.388L528.478 280.124L528.824 277.345L533.883 277.974C532.569 276.155 531.914 273.852 532.212 271.449C532.841 266.402 537.443 262.817 542.49 263.447ZM528.169 282.602L527.822 285.38L552.388 288.437L552.735 285.657L528.169 282.602Z" fill="#07051B"/>
<path d="M509.268 542.726L516.542 539.826L518.365 539.101L518.68 541.039L519.809 547.97L516.696 548.477L516.278 545.909L514.52 548.958C515.099 549.351 515.639 549.797 516.132 550.29C518.118 552.277 519.347 555.021 519.347 558.051C519.347 561.08 518.118 563.827 516.132 565.813C514.146 567.799 511.401 569.029 508.37 569.029C505.344 569.029 502.601 567.799 500.611 565.81L500.607 565.813C498.621 563.827 497.392 561.082 497.392 558.051C497.392 555.02 498.621 552.275 500.607 550.289C502.594 548.302 505.339 547.073 508.37 547.073C509.521 547.073 510.632 547.251 511.675 547.58L513.49 544.437L510.432 545.656L509.268 542.726ZM513.894 552.527C512.48 551.115 510.527 550.239 508.368 550.239C506.211 550.239 504.256 551.113 502.844 552.527C501.43 553.939 500.556 555.894 500.556 558.051C500.556 560.209 501.432 562.163 502.844 563.577V563.582C504.254 564.992 506.208 565.865 508.368 565.865C510.525 565.865 512.48 564.991 513.894 563.577C515.308 562.163 516.182 560.209 516.182 558.051C516.18 555.892 515.306 553.939 513.894 552.527Z" fill="#07051B"/>
<path d="M293.469 491.602L302.318 488.074L304.535 487.189L304.919 489.548L306.292 497.979L302.502 498.597L301.994 495.472L299.854 499.181C300.559 499.659 301.216 500.202 301.816 500.802C304.231 503.219 305.728 506.557 305.728 510.245C305.728 513.933 304.233 517.273 301.816 519.688C299.4 522.105 296.059 523.602 292.373 523.602C288.692 523.602 285.352 522.105 282.933 519.686L282.929 519.69C280.514 517.274 279.017 513.935 279.017 510.247C279.017 506.56 280.512 503.219 282.929 500.803C285.347 498.388 288.686 496.893 292.373 496.893C293.774 496.893 295.124 497.109 296.395 497.51L298.602 493.684L294.883 495.169L293.469 491.602ZM299.095 503.524C297.376 501.805 294.997 500.74 292.373 500.74C289.749 500.74 287.371 501.803 285.65 503.524C283.931 505.243 282.867 507.619 282.867 510.245C282.867 512.871 283.931 515.248 285.65 516.967V516.974C287.366 518.69 289.743 519.752 292.373 519.752C294.997 519.752 297.376 518.686 299.095 516.967C300.814 515.248 301.878 512.871 301.878 510.245C301.878 507.619 300.814 505.243 299.095 503.524Z" fill="#07051B"/>
<path d="M491.048 639.281C494.374 640.511 497.215 642.738 499.205 645.597C501.139 648.378 502.277 651.759 502.277 655.404C502.277 660.151 500.353 664.449 497.243 667.558C494.132 670.668 489.836 672.592 485.089 672.592C483.063 672.592 481.108 672.235 479.287 671.582C477.404 670.908 475.677 669.915 474.166 668.67L470.494 665.642L475.199 666.323C475.57 666.377 475.946 666.42 476.322 666.446C476.675 666.472 477.053 666.485 477.449 666.485C481.722 666.485 485.591 664.753 488.393 661.952C491.193 659.152 492.925 655.283 492.925 651.011C492.925 649.211 492.622 647.49 492.065 645.897C491.486 644.242 490.629 642.709 489.551 641.359L486.565 637.618L491.048 639.281ZM497.015 647.12C496.232 645.995 495.294 644.987 494.234 644.125C494.355 644.419 494.468 644.719 494.575 645.023C495.234 646.904 495.593 648.92 495.593 651.011C495.593 656.021 493.56 660.558 490.277 663.84C487.546 666.573 483.946 668.437 479.927 668.987L480.184 669.082C481.704 669.628 483.356 669.925 485.089 669.925C489.098 669.925 492.729 668.299 495.356 665.672C497.984 663.044 499.608 659.413 499.608 655.404C499.608 652.323 498.65 649.466 497.015 647.12Z" fill="#07051B"/>
<path d="M307.691 616.481C311.045 616.116 314.231 617.145 316.671 619.105L316.676 619.11C319.116 621.071 320.809 623.961 321.174 627.314C321.54 630.668 320.511 633.854 318.55 636.293L318.547 636.299C316.907 638.34 314.617 639.857 311.95 640.514L312.683 647.228L319.338 646.5L319.628 649.152L312.973 649.88L313.452 654.282L310.8 654.573L310.319 650.171L303.662 650.897L303.372 648.245L310.029 647.519L309.303 640.869C306.334 640.942 303.548 639.933 301.362 638.176L301.357 638.171C298.917 636.211 297.224 633.321 296.859 629.968C296.493 626.616 297.522 623.428 299.481 620.988L299.486 620.981C301.448 618.54 304.338 616.848 307.691 616.481ZM315.007 621.181C313.1 619.652 310.607 618.847 307.979 619.135C305.353 619.421 303.091 620.743 301.56 622.65C300.031 624.557 299.226 627.05 299.512 629.678C299.8 632.304 301.122 634.566 303.028 636.097C304.934 637.626 307.429 638.431 310.055 638.145C312.681 637.859 314.943 636.537 316.476 634.63C318.005 632.723 318.811 630.228 318.523 627.602C318.235 624.974 316.912 622.714 315.007 621.181Z" fill="#07051B"/>
<path d="M135.236 418.209C137.547 415.752 140.638 414.463 143.766 414.364H143.773C146.9 414.268 150.066 415.363 152.525 417.673C154.982 419.983 156.271 423.073 156.368 426.201V426.208C156.449 428.823 155.695 431.466 154.095 433.699L159.018 438.323L163.602 433.444L165.547 435.271L160.963 440.151L164.189 443.184L162.361 445.129L159.135 442.096L154.549 446.975L152.604 445.147L157.19 440.268L152.316 435.685C150.107 437.671 147.333 438.715 144.531 438.803H144.525C141.397 438.899 138.233 437.804 135.773 435.494C133.316 433.184 132.026 430.094 131.928 426.966V426.958C131.831 423.833 132.928 420.668 135.236 418.209ZM143.852 417.025C141.409 417.102 138.992 418.113 137.181 420.037C135.373 421.961 134.514 424.437 134.588 426.88C134.666 429.325 135.676 431.74 137.6 433.551C139.526 435.359 142 436.218 144.443 436.144C146.888 436.066 149.306 435.056 151.114 433.132C152.923 431.206 153.782 428.732 153.707 426.287C153.63 423.844 152.619 421.425 150.695 419.616C148.771 417.809 146.297 416.951 143.852 417.025Z" fill="#07051B"/>
<path fill-rule="evenodd" clip-rule="evenodd" d="M450.299 422.875C452.451 422.875 454.196 424.62 454.196 426.771C454.196 428.923 452.451 430.668 450.299 430.668C448.147 430.668 446.403 428.923 446.403 426.771C446.403 424.62 448.147 422.875 450.299 422.875ZM450.299 411.121C445.977 411.121 442.065 412.873 439.232 415.704C436.401 418.537 434.647 422.449 434.647 426.771C434.647 431.092 436.401 435.006 439.232 437.839C442.065 440.67 445.977 442.423 450.299 442.423C454.622 442.423 458.534 440.671 461.365 437.839C464.198 435.008 465.949 431.094 465.949 426.771C465.949 422.449 464.198 418.537 461.365 415.704C458.535 412.873 454.622 411.121 450.299 411.121ZM459.479 417.592C457.13 415.244 453.884 413.79 450.299 413.79C446.715 413.79 443.468 415.244 441.12 417.592C438.771 419.94 437.316 423.187 437.316 426.771C437.316 430.356 438.77 433.602 441.12 435.951C443.468 438.299 446.715 439.753 450.299 439.753C453.884 439.753 457.13 438.299 459.479 435.951C461.827 433.601 463.28 430.356 463.28 426.771C463.282 423.187 461.829 419.94 459.479 417.592Z" fill="#07051B"/>
<path d="M512.545 452.701C513.604 452.851 514.655 453.161 515.667 453.643C516.661 454.115 517.55 454.724 518.323 455.434C518.995 456.053 519.579 456.748 520.064 457.498C520.676 457.139 521.15 456.667 521.497 456.093C521.928 455.38 522.176 454.499 522.264 453.48L522.419 451.692L523.264 453.275C523.636 453.972 524.047 454.827 524.23 455.718C524.424 456.677 524.361 457.668 523.73 458.551C523.404 459.008 523.007 459.425 522.543 459.789C522.202 460.058 521.823 460.301 521.414 460.515C521.731 461.668 521.859 462.875 521.78 464.086C521.692 465.405 521.357 466.732 520.757 467.994C520.131 469.308 519.271 470.439 518.252 471.358C517.193 472.312 515.96 473.039 514.636 473.508L514.631 473.51C513.454 473.927 512.198 474.141 510.929 474.129C509.853 474.12 508.769 473.95 507.712 473.605L505.74 477.748L510.317 479.929L510.798 480.158L510.569 480.639L509.609 482.657L509.379 483.138L508.898 482.908L504.321 480.729L502.955 483.593L502.726 484.072L502.245 483.843L500.227 482.883L499.746 482.653L499.976 482.172L501.34 479.308L496.762 477.127L496.279 476.898L496.509 476.415L497.469 474.4L497.698 473.919L498.179 474.148L502.757 476.329L504.762 472.119C503.924 471.519 503.191 470.813 502.574 470.031C501.846 469.105 501.278 468.067 500.886 466.965L500.879 466.943C500.415 465.627 500.205 464.219 500.277 462.8C500.348 461.427 500.684 460.046 501.309 458.734C501.895 457.501 502.691 456.429 503.631 455.541C504.512 454.71 505.522 454.039 506.609 453.549C506.595 452.961 506.641 452.398 506.748 451.867C506.881 451.205 507.109 450.594 507.419 450.046C507.955 449.101 508.828 448.623 509.778 448.396C510.66 448.186 511.609 448.199 512.398 448.242L514.188 448.341L512.636 449.234C511.771 449.732 511.088 450.315 510.622 450.991C510.281 451.486 510.055 452.039 509.959 452.653C510.814 452.565 511.681 452.579 512.545 452.701ZM511.426 455.901C510.438 455.849 509.455 455.998 508.536 456.322C507.621 456.648 506.766 457.153 506.031 457.815C505.326 458.451 504.728 459.237 504.293 460.153C503.859 461.068 503.624 462.025 503.574 462.975C503.522 463.963 503.671 464.946 503.993 465.863C504.319 466.779 504.824 467.634 505.488 468.369C506.124 469.074 506.91 469.672 507.824 470.107C508.74 470.543 509.698 470.776 510.647 470.826C511.635 470.877 512.617 470.729 513.535 470.407C514.45 470.081 515.305 469.575 516.04 468.912C516.745 468.275 517.343 467.489 517.778 466.575C518.214 465.66 518.448 464.701 518.498 463.753C518.55 462.765 518.402 461.782 518.078 460.863C517.752 459.949 517.247 459.093 516.585 458.358C515.948 457.651 515.162 457.055 514.247 456.62C513.333 456.184 512.374 455.951 511.426 455.901Z" fill="#07051B"/>
<path d="M518.438 416.066L523.967 413.626L518.769 402.235L514.77 408.354L512.539 406.895L517.858 398.752L518.348 398.004L519.225 398.175L529.864 400.237L529.364 402.854L521.256 401.282L526.4 412.554L533.201 409.552L534.276 411.992L527.505 414.978L530.931 422.487L528.512 423.59L525.072 416.051L519.512 418.504L518.438 416.066Z" fill="#07051B"/>
<path d="M383.234 408.852C381.874 406.118 380.276 404.509 378.676 403.799C377.651 403.344 376.619 403.266 375.655 403.499C374.663 403.738 373.724 404.311 372.922 405.14C371.475 406.637 370.481 408.944 370.362 411.699C370.251 414.195 371.617 415.492 373 416.804C374.632 418.354 376.284 419.921 376.551 423.021C376.653 424.201 376.748 425.33 376.341 426.835C375.953 428.27 375.105 429.968 373.341 432.249L371.236 430.623C372.753 428.663 373.463 427.272 373.767 426.146C374.051 425.094 373.976 424.192 373.894 423.251C373.713 421.149 372.432 419.933 371.165 418.733C369.341 417.002 367.541 415.29 367.703 411.585C367.855 408.151 369.136 405.228 371.005 403.295C372.158 402.102 373.539 401.275 375.031 400.914C376.551 400.545 378.169 400.664 379.762 401.371C380.96 401.904 382.138 402.776 383.236 404.033V398.878H377.405V396.209H391.734V398.878H385.903V427.696H383.234V408.852Z" fill="#07051B"/>
<path d="M288.329 432.601L294.658 431.41L289.019 408.195L291.5 407.595L297.171 430.939L307.119 429.068C305.133 427.909 303.222 426.63 301.521 425.184C298.853 422.916 296.703 420.24 295.565 416.97C294.208 413.068 295.089 409.556 297.065 407.23C297.926 406.218 298.998 405.428 300.188 404.928C301.39 404.423 302.709 404.211 304.046 404.356C306.965 404.676 309.967 406.671 312.022 411.007L309.71 412.099C308.091 408.683 305.876 407.128 303.776 406.897C302.871 406.799 301.984 406.94 301.177 407.278C300.36 407.621 299.617 408.171 299.015 408.88C297.576 410.573 296.95 413.18 297.976 416.128C298.945 418.918 300.826 421.239 303.171 423.232C305.588 425.289 308.507 427.004 311.452 428.527L314.748 430.234L311.102 430.918L297.774 433.423L299.171 439.177L296.689 439.777L295.262 433.897L288.798 435.113L288.329 432.601Z" fill="#07051B"/>
<path d="M297.162 358.297L301.106 373.99C303.037 374.205 305.048 374.711 307.132 375.504L306.184 377.995C302.287 376.512 298.744 376.157 295.565 376.942C292.405 377.721 289.551 379.635 287.004 382.697L284.961 380.997C286.589 379.038 288.342 377.486 290.22 376.335L286.387 361.088C284.239 360.926 281.996 360.398 279.656 359.509L280.604 357.017C284.503 358.5 288.044 358.855 291.224 358.071C294.382 357.293 297.237 355.378 299.782 352.315L301.825 354.015C300.372 355.765 298.817 357.191 297.162 358.297ZM298.332 373.883L294.753 359.647C293.817 360.076 292.851 360.412 291.86 360.657C290.97 360.876 290.063 361.019 289.136 361.09L292.656 375.095C293.396 374.792 294.153 374.545 294.929 374.354C296.032 374.083 297.168 373.926 298.332 373.883Z" fill="#07051B"/>
<path d="M368.028 354.371H373.37C372.985 351.341 371.456 348.276 368.877 345.182L370.92 343.482C373.918 347.079 375.665 350.707 376.046 354.371H379.216C379.598 350.708 381.344 347.079 384.341 343.482L386.384 345.182C383.804 348.276 382.275 351.341 381.891 354.371H387.234V357.039H381.853C382.151 360.064 383.622 363.115 386.36 366.197L384.368 367.957C381.163 364.348 379.473 360.709 379.184 357.038H376.082C375.792 360.71 374.103 364.353 370.897 367.962L368.906 366.19C371.644 363.109 373.113 360.059 373.411 357.038H368.032V354.371H368.028Z" fill="#07051B"/>
<path d="M448.511 358.655C447.004 357.534 445.854 357.257 445.033 357.579C444.221 357.9 443.6 358.846 443.202 360.162C442.735 361.7 442.597 363.67 442.8 365.772C442.995 367.795 443.505 369.92 444.338 371.886C447.205 369.898 447.564 366.807 448.176 361.469C448.278 360.589 448.385 359.657 448.511 358.655ZM463.557 355.269C463.847 355.088 464.15 354.944 464.457 354.841C464.961 354.672 465.485 354.608 466.002 354.658C466.525 354.708 467.035 354.87 467.513 355.155C468.401 355.682 469.161 356.622 469.625 358.012L467.101 358.857C466.854 358.119 466.519 357.662 466.154 357.444C466.021 357.367 465.883 357.32 465.744 357.308C465.604 357.294 465.452 357.315 465.301 357.365C464.957 357.481 464.614 357.739 464.316 358.129C464.716 362.172 463.651 364.717 462.776 366.8C462.028 368.586 461.463 369.934 462.732 371.738L460.552 373.269C458.44 370.265 459.25 368.334 460.321 365.776C461.107 363.903 462.073 361.601 461.616 357.958C461.504 357.07 461.257 356.477 460.937 356.139C460.763 355.955 460.556 355.853 460.344 355.827C460.09 355.796 459.799 355.863 459.5 356.01C458.937 356.288 458.383 356.838 457.961 357.61L455.009 370.874L452.414 370.288L455.406 356.848C455.571 356.101 455.352 355.62 454.968 355.372C454.737 355.222 454.443 355.122 454.125 355.074C453.768 355.019 453.393 355.029 453.038 355.094C452.276 355.238 451.609 355.636 451.521 356.238C451.221 358.272 451.009 360.124 450.818 361.777C450.059 368.37 449.635 372.048 445.647 374.396C447.076 376.636 449.038 378.422 451.554 379.209L450.766 381.748C447.483 380.721 444.983 378.383 443.226 375.505C441.954 375.965 440.44 376.367 438.633 376.729L438.114 374.119C439.635 373.814 440.905 373.474 441.967 373.077C440.974 370.802 440.373 368.35 440.147 366.022C439.911 363.582 440.086 361.255 440.65 359.393C441.283 357.308 442.419 355.748 444.05 355.105C445.423 354.563 447.052 354.693 448.904 355.738C449.224 353.927 450.797 352.813 452.552 352.482C453.204 352.36 453.887 352.344 454.528 352.443C455.206 352.546 455.859 352.777 456.418 353.139C456.835 353.412 457.199 353.746 457.481 354.146C457.754 353.941 458.037 353.767 458.325 353.625C459.085 353.25 459.888 353.094 460.661 353.184C461.476 353.281 462.235 353.644 462.861 354.303C463.125 354.575 463.357 354.896 463.557 355.269Z" fill="#07051B"/>
<path d="M540.1 344.66C541.569 344.391 542.913 344.501 544.122 345.02C545.538 345.625 546.707 346.763 547.601 348.474L545.246 349.708C544.646 348.563 543.92 347.824 543.081 347.465C542.357 347.155 541.496 347.103 540.513 347.293C539.422 349.068 538.682 351.177 538.186 353.513C537.632 356.124 537.382 359.008 537.293 362.038L534.634 361.955C534.729 358.774 534.993 355.736 535.581 352.963C536.098 350.534 536.862 348.303 537.975 346.355C537.234 345.772 536.505 345.481 535.789 345.472C534.932 345.462 534.015 345.849 533.043 346.62L531.829 360.615L529.18 360.386L530.556 344.508L530.562 344.446C530.668 343.655 530.606 343.243 530.443 343.12C530.367 343.063 530.199 343.056 529.977 343.089C529.579 343.151 529.112 343.343 528.627 343.641V343.646C526.918 344.696 525.203 346.893 525.229 349.344L525.224 349.417C525.222 349.458 524.61 364.374 522.573 366.241C521.46 367.26 520.225 367.726 518.98 367.772C517.929 367.81 516.891 367.541 515.929 367.053C515.013 366.589 514.167 365.924 513.451 365.141C512.075 363.638 511.137 361.653 511.066 359.77L513.727 359.677C513.772 360.919 514.437 362.277 515.415 363.346C515.925 363.903 516.511 364.369 517.129 364.683C517.699 364.974 518.299 365.133 518.884 365.112C519.518 365.088 520.167 364.834 520.777 364.276C521.927 363.222 522.517 350.429 522.563 349.365H522.561C522.527 345.886 524.88 342.82 527.23 341.375L527.232 341.379C528.022 340.893 528.832 340.574 529.579 340.46C530.501 340.32 531.355 340.477 532.037 340.986C532.706 341.486 533.15 342.272 533.248 343.38C534.105 342.993 534.967 342.801 535.832 342.812C537.319 342.829 538.743 343.437 540.1 344.66Z" fill="#07051B"/>
<path d="M448.071 292.459C448.715 293.935 449.636 294.859 450.607 295.273C451.165 295.511 451.743 295.578 452.288 295.482C452.824 295.387 453.338 295.127 453.772 294.711C454.517 293.999 455.043 292.832 455.129 291.232C455.148 290.873 454.791 289.735 454.34 288.297C453.76 286.449 453.04 284.149 452.669 281.819C451.905 277.016 452.629 272.352 458.65 271.395C460.252 271.142 461.569 271.409 462.643 272.04C463.616 272.611 464.348 273.464 464.881 274.481C465.374 275.423 465.693 276.507 465.871 277.628C466.364 280.728 465.762 284.301 464.809 285.925L462.517 284.58C463.224 283.375 463.647 280.576 463.245 278.045C463.109 277.188 462.876 276.38 462.526 275.711C462.216 275.118 461.81 274.633 461.298 274.331C460.741 274.004 460.009 273.873 459.067 274.021C455.167 274.64 454.748 277.961 455.295 281.401C455.629 283.509 456.324 285.725 456.883 287.504C457.412 289.192 457.831 290.528 457.785 291.368C457.66 293.704 456.814 295.485 455.605 296.639C454.783 297.425 453.793 297.92 452.745 298.106C451.705 298.29 450.609 298.168 449.562 297.72C448.005 297.056 446.569 295.67 445.629 293.52L448.071 292.459Z" fill="#07051B"/>
<path d="M464.741 283.438C466.371 283.438 467.824 284.273 468.855 285.618C469.807 286.863 470.397 288.561 470.397 290.418C470.397 292.275 469.807 293.973 468.855 295.218C467.824 296.563 466.371 297.397 464.741 297.397C463.112 297.397 461.657 296.563 460.626 295.218C459.674 293.975 459.083 292.275 459.083 290.418C459.083 288.561 459.672 286.863 460.626 285.618C461.659 284.273 463.112 283.438 464.741 283.438ZM466.741 287.235C466.209 286.539 465.5 286.107 464.743 286.107C463.986 286.107 463.276 286.539 462.743 287.235C462.133 288.033 461.753 289.158 461.753 290.418C461.753 291.678 462.133 292.802 462.743 293.602C463.276 294.297 463.985 294.728 464.743 294.728C465.5 294.728 466.209 294.297 466.741 293.602C467.352 292.804 467.731 291.68 467.731 290.418C467.729 289.158 467.352 288.032 466.741 287.235Z" fill="#07051B"/>
<path d="M361.388 266.033L361.116 258.498L361.023 255.898L363.187 257.345L370.766 262.414L370.613 258.157L370.52 255.555L372.683 257.002L380.263 262.071L380.109 257.814L380.015 255.212L382.178 256.658L392.001 263.228L390.839 264.971L389.877 265.003L382.87 260.319L383.047 265.252L381.344 265.312L380.382 265.348L373.373 260.662L373.552 265.593L371.847 265.655L370.885 265.69L363.878 261.003L364.056 265.936L361.388 266.033Z" fill="#07051B"/>
<path d="M364.527 279.233L364.256 271.698L364.161 269.097L366.327 270.545L373.906 275.612L373.753 271.355L373.658 268.753L375.822 270.202L383.403 275.269L383.248 271.014L383.154 268.412L385.318 269.859L395.139 276.426L393.977 278.169L393.017 278.204L386.008 273.517L386.186 278.45L384.482 278.512L383.52 278.547L376.511 273.86L376.691 278.793L374.985 278.855L374.023 278.89L367.016 274.202L367.194 279.136L364.527 279.233Z" fill="#07051B"/>
<path d="M287.306 288.885C289.703 288.885 291.875 289.858 293.446 291.428C295.017 292.999 295.989 295.17 295.989 297.568C295.989 299.965 295.017 302.137 293.446 303.708C291.875 305.279 289.703 306.251 287.306 306.251C284.909 306.251 282.737 305.279 281.166 303.708C279.596 302.137 278.623 299.965 278.623 297.568C278.623 295.17 279.596 292.999 281.166 291.428C282.737 289.858 284.909 288.885 287.306 288.885ZM291.56 293.316C290.472 292.228 288.968 291.554 287.308 291.554C285.647 291.554 284.142 292.228 283.054 293.316C281.966 294.406 281.292 295.909 281.292 297.57C281.292 299.23 281.966 300.735 283.054 301.823C284.142 302.911 285.647 303.584 287.308 303.584C288.968 303.584 290.472 302.91 291.56 301.823C292.648 300.735 293.322 299.23 293.322 297.57C293.322 295.908 292.648 294.404 291.56 293.316Z" fill="#07051B"/>
<path d="M281.997 292.207C280.738 290.133 279.272 288.85 277.645 288.18C276.012 287.506 274.164 287.426 272.165 287.766L271.729 285.138C274.193 284.719 276.522 284.838 278.657 285.718C280.798 286.602 282.695 288.233 284.269 290.831L281.997 292.207Z" fill="#07051B"/>
<path d="M287.084 290.263C287.722 287.294 288.982 285.132 290.718 283.595C292.449 282.064 294.615 281.19 297.086 280.78L297.513 283.407C295.52 283.738 293.803 284.418 292.48 285.587C291.167 286.749 290.201 288.442 289.689 290.816L287.084 290.263Z" fill="#07051B"/>
<path d="M285.962 221.242L284.255 210.094C282.705 204.723 280.143 202.199 277.817 201.542C276.735 201.237 275.722 201.349 274.943 201.77C274.21 202.165 273.671 202.842 273.481 203.694C273.141 205.22 273.855 207.323 276.322 209.589L274.321 211.76C270.959 208.673 270.05 205.511 270.598 203.053C270.981 201.332 272.066 199.965 273.541 199.168C274.971 198.399 276.762 198.171 278.614 198.694C280.874 199.334 283.255 201.113 285.121 204.435C286.012 200.73 287.819 198.37 289.819 197.14C291.459 196.134 293.243 195.865 294.83 196.216C296.468 196.58 297.881 197.601 298.719 199.153C299.914 201.37 299.902 204.658 297.507 208.542L294.99 206.997C296.747 204.147 296.862 201.928 296.121 200.553C295.707 199.784 295.004 199.278 294.19 199.099C293.326 198.908 292.321 199.073 291.362 199.661C289.304 200.927 287.524 204.054 287.495 209.642L288.886 220.836L287.423 221.022L285.962 221.242Z" fill="#07051B"/>
<path d="M386.524 158.047L388.932 153.433L391.288 154.662L388.234 160.514C389.879 163.133 391.291 166.157 391.839 168.859L389.234 169.38C388.363 165.085 385.019 159.854 382.408 157.388C381.929 156.935 381.498 156.597 381.148 156.406C381.139 156.704 381.182 157.171 381.291 157.837C381.353 158.214 381.524 158.938 381.732 159.823C382.436 162.8 383.553 167.53 382.984 170.323L382.798 171.24C382.829 171.48 382.844 171.726 382.844 171.973C382.844 172.632 382.732 173.264 382.524 173.854L390.5 179.075L389.041 181.306L381.065 176.083C380.058 177.028 378.701 177.608 377.212 177.608C375.655 177.608 374.246 176.977 373.227 175.956C372.208 174.937 371.577 173.528 371.577 171.973C371.577 170.418 372.208 169.007 373.227 167.988C374.246 166.97 375.655 166.338 377.212 166.338C378.412 166.338 379.522 166.713 380.436 167.352C380.248 165.123 379.598 162.373 379.137 160.426C378.925 159.528 378.751 158.794 378.665 158.264C378.362 156.418 378.548 155.187 379.077 154.469C379.767 153.53 380.744 153.364 381.893 153.818C382.603 154.099 383.406 154.668 384.232 155.449C384.962 156.142 385.744 157.03 386.524 158.047ZM379.565 173.775L380.082 171.237C379.948 170.713 379.675 170.247 379.306 169.876C378.77 169.34 378.029 169.007 377.21 169.007C376.391 169.007 375.649 169.34 375.113 169.876C374.577 170.413 374.244 171.156 374.244 171.973C374.244 172.792 374.577 173.533 375.113 174.07C375.649 174.606 376.391 174.939 377.21 174.939C378.029 174.939 378.77 174.606 379.306 174.07C379.398 173.978 379.484 173.88 379.565 173.775Z" fill="#07051B"/>
<path d="M463.583 186.339C461.336 186.502 459.243 186.961 457.317 187.735C454.071 189.04 451.269 191.261 448.967 194.499L446.8 192.958C449.409 189.285 452.607 186.761 456.328 185.264C460.31 183.663 469.709 182.177 473.147 185.614C474.29 186.758 474.999 188.34 474.999 190.085C474.999 191.827 474.292 193.406 473.147 194.551V194.556C472.004 195.699 470.421 196.408 468.676 196.408C466.935 196.408 465.355 195.701 464.211 194.556L464.205 194.551C463.062 193.408 462.354 191.828 462.354 190.085C462.354 188.683 462.809 187.387 463.583 186.339ZM471.259 187.502C470.599 186.842 469.683 186.433 468.674 186.433C467.664 186.433 466.75 186.842 466.088 187.501L466.09 187.502C465.43 188.163 465.019 189.077 465.019 190.087C465.019 191.097 465.426 192.009 466.085 192.671L466.09 192.677C466.75 193.334 467.664 193.74 468.673 193.74C469.681 193.74 470.595 193.332 471.257 192.671L471.261 192.673C471.919 192.013 472.328 191.097 472.328 190.087C472.328 189.077 471.919 188.163 471.259 187.502Z" fill="#07051B"/>
<path d="M459.369 203.599C461.618 203.435 463.709 202.977 465.637 202.203C468.881 200.897 471.683 198.677 473.987 195.437L476.154 196.978C473.545 200.651 470.349 203.175 466.626 204.672C462.643 206.273 453.245 207.76 449.807 204.322C448.664 203.178 447.955 201.596 447.955 199.851C447.955 198.109 448.662 196.53 449.807 195.385V195.38C450.95 194.237 452.533 193.528 454.278 193.528C456.019 193.528 457.599 194.235 458.743 195.38L458.749 195.385C459.892 196.53 460.6 198.109 460.6 199.851C460.6 201.254 460.143 202.551 459.369 203.599ZM451.693 202.434C452.354 203.096 453.267 203.504 454.276 203.504C455.286 203.504 456.2 203.096 456.862 202.437L456.859 202.434C457.521 201.773 457.93 200.859 457.93 199.851C457.93 198.842 457.523 197.927 456.866 197.268L456.861 197.263C456.2 196.606 455.286 196.199 454.278 196.199C453.269 196.199 452.355 196.608 451.695 197.27L451.693 197.268C451.035 197.928 450.626 198.842 450.626 199.853C450.624 200.859 451.033 201.773 451.693 202.434Z" fill="#07051B"/>
<path fill-rule="evenodd" clip-rule="evenodd" d="M183.483 90.4736C177.898 120.869 173 132.686 149.772 135.712C172.998 138.738 177.898 150.556 183.483 180.951C189.067 150.556 193.966 138.738 217.192 135.712C193.966 132.686 189.067 120.869 183.483 90.4736Z" fill="white"/>
<path fill-rule="evenodd" clip-rule="evenodd" d="M646.612 317.69C641.028 348.086 636.13 359.903 612.903 362.929C636.13 365.955 641.03 377.772 646.612 408.168C652.197 377.772 657.095 365.955 680.323 362.929C657.097 359.903 652.197 348.086 646.612 317.69Z" fill="white"/>
<path fill-rule="evenodd" clip-rule="evenodd" d="M174.667 671.184C169.082 701.579 164.184 713.396 140.958 716.422C164.184 719.448 169.084 731.265 174.667 761.661C180.251 731.265 185.15 719.448 208.378 716.422C185.151 713.396 180.251 701.581 174.667 671.184Z" fill="white"/>
<path fill-rule="evenodd" clip-rule="evenodd" d="M618.871 671.184C613.286 701.579 608.388 713.396 585.16 716.422C608.386 719.448 613.286 731.265 618.871 761.661C624.456 731.265 629.354 719.448 652.582 716.422C629.356 713.396 624.456 701.581 618.871 671.184Z" fill="white"/>
<path fill-rule="evenodd" clip-rule="evenodd" d="M619.628 540.78C615.666 562.344 612.19 570.727 595.712 572.874C612.19 575.02 615.666 583.403 619.628 604.967C623.59 583.403 627.066 575.02 643.544 572.874C627.066 570.727 623.588 562.344 619.628 540.78Z" fill="white"/>
<path fill-rule="evenodd" clip-rule="evenodd" d="M68.9158 484.001C64.9537 505.566 61.4778 513.948 45 516.095C61.4778 518.242 64.9537 526.624 68.9158 548.189C72.878 526.624 76.3539 518.242 92.8317 516.095C76.3522 513.948 72.8762 505.566 68.9158 484.001Z" fill="white"/>
<path fill-rule="evenodd" clip-rule="evenodd" d="M353.197 0C349.235 21.5641 345.759 29.947 329.281 32.0936C345.759 34.2401 349.235 42.623 353.197 64.1871C357.159 42.623 360.635 34.2401 377.113 32.0936C360.633 29.947 357.157 21.5641 353.197 0Z" fill="white"/>
<path fill-rule="evenodd" clip-rule="evenodd" d="M208.376 320.222C204.414 341.786 200.938 350.169 184.461 352.315C200.938 354.462 204.414 362.845 208.376 384.409C212.339 362.845 215.814 354.462 232.292 352.315C215.814 350.169 212.339 341.786 208.376 320.222Z" fill="white"/>
<path fill-rule="evenodd" clip-rule="evenodd" d="M620.109 224.75C617.69 237.915 615.567 243.034 605.507 244.345C615.567 245.655 617.69 250.774 620.109 263.94C622.528 250.774 624.65 245.655 634.711 244.345C624.65 243.034 622.528 237.915 620.109 224.75Z" fill="white"/>
<path fill-rule="evenodd" clip-rule="evenodd" d="M125.452 243.779C123.033 256.945 120.91 262.064 110.85 263.374C120.91 264.685 123.033 269.804 125.452 282.969C127.871 269.804 129.993 264.685 140.053 263.374C129.993 262.064 127.871 256.945 125.452 243.779Z" fill="white"/>
<path fill-rule="evenodd" clip-rule="evenodd" d="M680.325 451.241C677.906 464.406 675.783 469.525 665.723 470.836C675.783 472.146 677.906 477.265 680.325 490.431C682.744 477.265 684.866 472.146 694.927 470.836C684.866 469.525 682.744 464.406 680.325 451.241Z" fill="white"/>
<path fill-rule="evenodd" clip-rule="evenodd" d="M529.334 61.9766C526.915 75.1423 524.792 80.2613 514.732 81.5717C524.792 82.882 526.915 88.0011 529.334 101.167C531.753 88.0011 533.875 82.882 543.936 81.5717C533.875 80.2613 531.753 75.1423 529.334 61.9766Z" fill="white"/>
<path fill-rule="evenodd" clip-rule="evenodd" d="M81.8325 609.043C79.4135 622.209 77.291 627.328 67.2305 628.638C77.291 629.948 79.4135 635.067 81.8325 648.233C84.2515 635.067 86.3739 629.948 96.4344 628.638C86.3739 627.328 84.2515 622.209 81.8325 609.043Z" fill="white"/>
<path d="M299.007 713.486L299.461 703.829C298.59 707.017 298.5 710.283 299.007 713.486Z" fill="white"/>
<path d="M565.523 235.424C561.73 226.964 553.277 220.179 544.499 218.36C539.254 217.274 533.893 217.96 529.343 221.119C521.112 226.836 518.795 237.786 517.128 247.669C508.974 296.009 500.819 344.348 492.665 392.688C491.948 396.939 488.108 402.523 484.808 399.752C486.486 366.241 488.233 332.732 489.736 299.213C490.343 285.689 490.088 271.823 489.841 258.414C489.636 247.221 489.441 236.647 489.722 226.508C490.002 216.439 490.857 206.817 491.608 198.327C492.445 188.882 493.169 180.725 492.989 173.915C492.396 151.382 478.198 140.452 465.258 139.835C445.858 138.909 434.723 157.183 432.597 174.556L429.959 241.047C429.463 253.607 427.501 266.349 425.602 278.671C424.132 288.211 422.613 298.075 421.759 307.889C421.318 312.949 421.494 318.022 421.664 322.929C421.83 327.741 421.989 332.288 421.618 336.85C420.928 345.338 419.566 353.96 418.249 362.298C417.614 366.309 416.982 370.319 416.414 374.34C415.518 374.636 413.883 374.583 413.533 374.057C410.866 346.021 411.347 317.037 411.812 289.009C411.88 284.87 411.95 280.728 412.009 276.585C412.333 254.055 412.078 231.174 411.833 209.046L411.711 197.798C411.573 184.444 412.766 170.823 413.921 157.649C414.504 151.004 415.106 144.131 415.54 137.145C415.54 117.986 400.085 106.721 384.817 105.495C371.029 104.393 355.777 111.731 352.725 130.624L350.041 178.879C349.448 196.617 347.282 214.298 345.189 231.396C342.977 249.466 340.689 268.149 340.229 287.037C340.063 293.873 340.543 304.677 341.098 317.187C341.398 323.96 341.718 331.167 341.962 338.353L340.522 375.412C340.244 375.574 339.591 375.823 338.636 375.835C337.692 375.847 337.034 375.617 336.77 375.459L328.799 318.153C326.948 304.835 325.42 290.984 323.942 277.587C322.406 263.654 320.816 249.245 318.82 234.912C316.659 219.412 315.189 203.524 313.768 188.156C313.04 180.292 312.313 172.428 311.502 164.665C310.446 150.775 298.804 139.054 283.328 139.381C277.874 139.497 272.573 141.421 268.159 144.626C258.684 151.504 253.262 162.583 253.65 174.289C254.157 189.653 254.193 207.056 254.233 225.481C254.269 243.517 254.309 262.168 254.803 280.035C255.078 289.942 256.093 299.42 257.072 308.584C258.117 318.349 259.105 327.572 259.002 335.889L258.09 408.925L263.469 468.395C263.86 479.772 259.838 493.435 253.222 495.638C248.396 497.233 241.701 492.336 234.369 481.81L227.45 471.874C220.384 461.727 207.23 442.836 198.611 434.249C189.047 424.72 178.508 416.097 167.29 408.621C152.483 398.751 133.4 397.304 117.291 404.787C114.332 406.161 111.676 408.209 109.907 410.951C106.108 416.835 106.374 424.108 110.134 429.546L137.922 459.77C146.036 471.538 152.621 484.324 157.492 497.774C157.666 498.257 175.411 546.468 190.961 562.02C219.02 590.081 233.212 630.806 233.351 631.213L233.674 631.888C241.358 644.059 252.369 654.618 263.017 664.83C278.576 679.749 293.271 693.843 295.064 710.553C296.552 724.414 295.89 748.623 295.307 769.982C295.037 779.89 294.778 789.327 294.773 796.692C294.771 798.527 296.273 799.996 298.109 799.973C299.351 798.811 300.099 798.11 301.34 796.948C302.025 789.02 305.878 781.589 312.246 776.716C320.853 770.128 331.832 768.113 342.484 767.711C352.351 767.34 362.222 768.321 372.098 768.275C389.935 768.189 407.506 764.763 425.22 763.133C442.903 761.506 460.487 762.352 477.693 766.944C489.929 770.209 498.853 780.73 499.821 793.358C499.862 793.898 499.903 794.437 499.945 794.977C500.072 796.625 501.445 797.898 503.098 797.908C503.121 797.908 503.141 797.908 503.162 797.908C505.024 797.92 506.495 796.339 506.35 794.482C504.093 765.744 502.464 736.021 513.107 709.32C518.964 694.624 528.307 681.543 534.473 666.973C543.601 645.404 545.395 621.542 546.761 598.16C552.975 491.762 552.689 384.773 567.347 279.206C569.373 264.53 571.58 248.94 565.523 235.424ZM439.009 175.208C441.592 154.487 453.861 145.742 464.951 146.269C475.35 146.766 486.062 155.559 486.55 174.084C486.719 180.523 486.012 188.51 485.191 197.756C484.627 204.108 483.841 217.419 483.465 224.167C483.263 227.798 481.662 231.276 478.817 233.541C477.682 234.445 476.439 235.217 475.139 235.829C470.277 238.122 464.756 238.562 459.38 238.571C454.43 238.579 449.363 238.226 444.813 236.274C444.78 236.26 444.749 236.247 444.716 236.233C439.82 234.098 436.884 229.005 437.094 223.667L439.009 175.208ZM429.306 298.035C430.089 291.859 431.039 285.69 431.97 279.652C433.496 269.749 435.049 259.578 435.889 249.352C435.939 248.733 436.287 248.178 436.825 247.867C440.492 245.745 444.539 244.35 448.737 243.776C458.925 242.381 469.434 243.491 479.134 246.897C481.594 247.761 483.253 250.069 483.296 252.676C483.327 254.609 483.362 256.559 483.398 258.533C483.643 271.842 483.896 285.604 483.298 298.925C483.21 300.899 483.12 302.865 483.031 304.818C482.593 314.384 475.634 322.639 466.162 324.039C465.52 324.134 464.877 324.205 464.234 324.253C456.01 324.862 447.891 322.193 440.34 318.875C440.044 318.744 439.735 318.593 439.42 318.424C432.116 314.517 428.264 306.253 429.306 298.035ZM355.42 196.836C355.905 190.97 356.277 185.073 356.476 179.163L359.112 131.488C361.732 115.764 374.291 111.102 384.3 111.917C396.621 112.907 409.095 121.888 409.102 136.942C408.68 143.645 408.081 150.478 407.502 157.083C406.437 169.242 405.342 181.779 405.266 194.261C405.25 196.767 404.523 199.22 403.088 201.274C399.886 205.856 394.95 209.376 389.562 211.05C380.771 213.782 371.129 212.295 362.538 208.988C362.35 208.915 362.143 208.822 361.92 208.712C357.519 206.527 355.015 201.731 355.42 196.836ZM346.668 287.192C347.122 268.618 349.389 250.093 351.582 232.178C351.588 232.14 351.591 232.102 351.596 232.064C352.598 223.877 359.377 217.526 367.622 217.293C367.791 217.288 367.96 217.284 368.127 217.281C374.314 217.148 380.505 217.332 386.66 217.974C388.379 218.153 390.124 218.379 391.864 218.677C399.826 220.048 405.585 227.043 405.643 235.122C405.743 248.885 405.762 262.756 405.566 276.49C405.507 280.628 405.438 284.764 405.369 288.901C405.357 289.666 405.343 290.434 405.331 291.202C405.228 297.546 401.468 303.435 395.54 305.692C395.498 305.708 395.459 305.723 395.417 305.739C391.393 307.237 387.004 307.349 382.709 307.38C375.378 307.432 367.929 307.275 360.914 305.142C358.92 304.535 356.958 303.748 355.098 302.779C349.779 300.013 346.574 294.389 346.648 288.394C346.651 287.98 346.658 287.578 346.668 287.192ZM260.669 225.467C260.629 206.991 260.595 189.539 260.083 174.073C259.766 164.473 264.231 155.389 272.024 149.775C278.236 145.307 286.378 144.583 293.278 147.895C299.988 151.116 304.508 157.728 305.08 165.242C305.895 173.07 306.62 180.91 307.346 188.749C308.43 200.479 309.561 212.505 310.996 224.469C311.806 231.226 308.235 237.9 301.937 240.479C301.895 240.497 301.854 240.512 301.814 240.529C295.419 243.105 288.309 243.133 281.424 242.766C278.821 242.626 276.131 242.388 273.5 241.935C266.107 240.66 260.684 234.267 260.669 226.764C260.671 226.331 260.671 225.898 260.669 225.467ZM263.472 307.896C262.505 298.856 261.505 289.508 261.238 279.856C261.079 274.149 260.976 268.35 260.9 262.518C260.845 258.29 262.966 254.326 266.505 252.012L267.805 251.162C272.517 248.083 278.109 246.792 283.73 247.093C291.44 247.509 301.099 244.8 308.408 249.038C309.428 249.629 310.358 250.335 311.22 251.121C313.599 253.293 315.049 256.311 315.421 259.511C316.156 265.83 316.853 272.107 317.534 278.29C318.628 288.223 319.756 298.401 321.023 308.448C321.947 315.786 318.196 322.994 311.568 326.277C308.159 327.965 304.437 329.205 300.809 330.201C293.83 332.12 286.569 333.61 279.385 332.726C279.333 332.719 279.281 332.712 279.23 332.707C271.264 331.681 265.16 325.039 264.409 317.043C264.126 314.055 263.805 311.006 263.472 307.896ZM155.597 477.333C147.976 461.7 137.36 447.534 124.496 435.832C121.517 433.122 118.369 430.486 116.251 427.06C114.134 423.634 113.201 419.172 114.986 415.561C116.343 412.815 119.034 410.973 121.802 409.658C130.809 405.371 141.483 405.527 151.012 408.475C160.54 411.423 169.066 416.965 176.89 423.151C185.232 429.748 192.934 437.153 199.853 445.229C206.256 452.705 207.894 461.127 205.989 468.941C202.83 481.893 189.773 493.271 176.261 493.7C165.099 494.057 159.943 486.248 155.597 477.333ZM546.985 430.723C546.923 449.641 546.492 468.555 545.821 487.46C544.501 524.695 542.237 561.889 539.975 599.076C538.637 621.069 537.195 643.528 528.804 663.901C522.736 678.632 513.226 691.753 507.195 706.5C505.405 710.874 503.948 715.333 502.765 719.857C501.928 723.062 500.429 726.074 498.386 728.683C485.629 744.962 463.167 751.231 443.734 754.93C409.34 761.476 374.327 755.7 340.944 746.609C330.242 743.695 319.325 740.267 310.782 733.195C310.747 733.166 310.713 733.138 310.678 733.109C305.366 728.676 302.349 722.079 301.907 715.174C301.787 713.281 301.64 711.503 301.463 709.862C299.418 690.815 283.9 675.932 267.471 660.177C257.195 650.323 246.572 640.135 239.312 628.754C237.741 624.292 223.536 585.486 195.509 557.461C189.446 551.396 182.29 538.447 176.102 525.382C173.907 520.745 174.042 515.35 176.373 510.783C177.811 507.964 179.583 505.299 181.561 502.843C186.739 496.416 193.275 491.24 199.751 486.123C201.827 484.483 203.963 482.821 206.17 481.276C213.596 476.083 223.968 478.184 229.16 485.612C238.5 498.976 247.279 504.397 255.252 501.749C265.404 498.367 270.376 481.924 269.892 467.991L264.531 408.671C264.531 408.671 265.135 360.255 265.136 360.216C265.512 330.143 322.878 322.529 327.353 354.533L330.403 376.454C330.825 379.997 334.368 382.421 338.877 382.273C343.387 382.159 346.703 379.626 346.944 376.026L348.408 338.37L348.403 338.253C348.3 335.16 348.181 332.062 348.056 328.994C347.793 322.531 351.52 316.551 357.658 314.344C361.593 312.93 365.867 312.884 370.048 312.855C381.998 312.77 401.385 312.589 404.916 327.174C408.412 341.608 405.692 359.695 407.116 374.667C407.471 378.412 410.48 380.892 414.776 380.983C418.804 381.021 423.356 378.895 422.645 374.521C422.273 372.226 422.635 369.909 423.471 367.74C427.078 358.378 422.897 343.488 428.182 333.61C434.454 321.886 461.979 328.072 473 329.669C483.667 331.213 481.812 341.915 480.905 349.481C479.379 362.228 479.286 375.366 478.436 388.187C478.051 393.973 477.793 400.271 481.855 404.773C484.217 407.392 487.976 408.535 491.202 407.108C494.843 405.497 494.984 402.021 496.017 399.014C501.095 384.242 520.261 385.656 532.347 389.19C552.62 395.119 547.038 414.285 546.985 430.723ZM554.202 352.136C553.435 359.669 552.69 366.793 551.97 373.507C551.625 376.721 550.044 379.697 547.494 381.681C543.857 384.509 539.154 386.161 534.514 386.466C526.771 386.976 519.167 384.412 511.99 381.461C510.122 380.693 508.241 379.881 506.669 378.616C506.647 378.597 506.622 378.578 506.6 378.559C503.212 375.793 501.919 371.183 502.864 366.912C503.247 365.183 503.595 363.61 503.595 363.61C506.841 349.122 510.8 331.394 513.841 313.963C514.321 311.213 516.523 309.094 519.292 308.748C522.483 308.348 525.712 308.37 528.899 308.813L542.882 310.761C545.713 311.156 548.649 311.587 551.044 313.148C551.844 313.668 552.556 314.298 553.228 314.975C555.211 316.972 556.233 319.715 556.104 322.524C555.778 329.556 555.059 343.719 554.202 352.136ZM557.87 291.397C557.868 291.427 557.865 291.454 557.861 291.484C557.249 298.132 552.704 303.78 546.285 305.615C540.542 307.256 534.34 307.306 528.631 305.522C526.874 304.973 525.155 304.26 523.612 303.258C522.18 302.327 520.945 301.182 519.857 299.896C517.228 296.785 515.988 292.728 516.235 288.665C516.486 284.52 516.842 280.49 517.54 277.089L525.611 237.721C527.666 227.7 536.464 223.979 543.802 224.783C552.973 225.777 563.571 234.148 563.399 254.447C562.878 256.931 559.544 273.292 557.87 291.397Z" fill="white"/>
</svg>
